<svg xmlns="http://www.w3.org/2000/svg" width="579" height="369" fill="none" viewBox="0 0 579 369">
  <g clip-path="url(#a)">
    <g clip-path="url(#b)">
      <g filter="url(#c)">
        <path fill="#8C1515" d="M551.693 188.716c-1.175 41.106-20.959 82.737-47.208 110.705-27.929 26.356-65.196 42.893-106.318 44.127v-106.51a48.122 48.122 0 0 0 8.611-1.574c13.872-3.845 25.181-13.75 31.841-26.52 3.436-6.594 6.067-13.79 6.611-20.228h106.463Z"/>
      </g>
      <g filter="url(#d)">
        <path stroke="#fff" stroke-width="4" d="M398.153 248.171c33-1 59.5-32.5 59.5-60.5"/>
      </g>
    </g>
    <g filter="url(#e)">
      <path fill="#666" d="m296.667 75.004-73.612 73.562a54.39 54.39 0 0 1 12.414 30.313h104.088c-1.149-40.148-17.236-76.55-42.899-103.875h.009Z"/>
    </g>
    <g filter="url(#f)">
      <path fill="#C6C6C6" d="M185.841 25.02v104.027a54.427 54.427 0 0 1 30.352 12.624l73.603-73.553c-27.306-25.731-63.751-41.883-103.955-43.097Z"/>
    </g>
    <g filter="url(#g)">
      <path fill="#666" d="m72.158 68.118 73.603 73.553c8.352-7.028 18.839-11.609 30.352-12.624V25.021c-40.204 1.213-76.64 17.366-103.945 43.097h-.01Z"/>
    </g>
    <g filter="url(#h)">
      <path fill="#C6C6C6" d="M22.388 178.879h104.087a54.397 54.397 0 0 1 12.414-30.313L65.277 75.004c-25.663 27.315-41.75 63.727-42.899 103.875h.01Z"/>
    </g>
    <g filter="url(#i)">
      <path fill="#666" d="m65.524 292.238 73.603-73.553c-6.986-8.289-11.551-18.675-12.614-30.085H22.407c1.271 40.073 17.416 76.398 43.117 103.628v.01Z"/>
    </g>
    <g filter="url(#j)">
      <path fill="#C6C6C6" d="m278.568 292.475 73.612-73.562a54.39 54.39 0 0 1-12.414-30.313H235.678c1.149 40.148 17.236 76.55 42.899 103.875h-.009Z"/>
    </g>
    <g filter="url(#k)">
      <path fill="#666" d="M389.385 342.458V238.432a54.43 54.43 0 0 1-30.353-12.624l-73.602 73.553c27.305 25.731 63.751 41.883 103.945 43.097h.01Z"/>
    </g>
    <g filter="url(#l)">
      <path fill="#C6C6C6" d="m401.201 23.817-2.276 104.062a54.4 54.4 0 0 1 30.034 13.074l75.154-71.986c-26.748-26.254-62.799-43.134-102.912-45.16v.01Z"/>
    </g>
    <g filter="url(#m)">
      <path fill="#666" d="m509.701 75.25-73.602 73.553c6.985 8.29 11.55 18.675 12.613 30.085h104.107c-1.272-40.072-17.416-76.398-43.118-103.628v-.01Z"/>
    </g>
    <g filter="url(#n)">
      <path fill="#fff" d="m70.592 287.164 3.113-3.111c-23.642-25.163-38.552-58.605-39.833-95.462h-4.395c1.291 38.061 16.685 72.604 41.125 98.563l-.01.01Z"/>
    </g>
    <g filter="url(#o)">
      <path fill="#fff" d="m291.684 79.983-3.113 3.111c23.614 25.267 38.448 58.833 39.578 95.785h4.394c-1.129-38.166-16.457-72.823-40.868-98.896h.009Z"/>
    </g>
    <g filter="url(#p)">
      <path fill="#fff" d="M185.841 36.373c37.015 1.205 70.613 16.124 95.868 39.826l3.113-3.11c-26.052-24.5-60.751-39.902-98.971-41.116v4.391l-.01.01Z"/>
    </g>
    <g filter="url(#q)">
      <path fill="#fff" d="M80.264 76.218c25.246-23.702 58.834-38.63 95.839-39.845v-4.39c-38.22 1.213-72.909 16.626-98.952 41.134l3.113 3.11v-.009Z"/>
    </g>
    <g filter="url(#r)">
      <path fill="#fff" d="M29.449 178.879h4.394c1.13-36.943 15.955-70.499 39.55-95.766l-3.114-3.11c-24.401 26.063-39.71 60.719-40.84 98.876h.01Z"/>
    </g>
    <g filter="url(#s)">
      <path fill="#fff" d="m344.122 226.965 3.113-3.111c-8.352-9.617-13.771-21.824-14.891-35.244h-4.404c1.139 14.625 7.052 27.932 16.192 38.355h-.01Z"/>
    </g>
    <g filter="url(#t)">
      <path fill="#fff" d="M389.385 245.043c-13.364-.987-25.56-6.213-35.231-14.36l-3.113 3.111c10.478 8.935 23.765 14.654 38.344 15.65v-4.401Z"/>
    </g>
    <g filter="url(#u)">
      <path fill="#fff" d="m399.11 117.048-.008 4.404c13.267 1.134 25.35 6.472 34.905 14.689l3.116-3.107c-10.369-8.997-23.532-14.83-38.013-15.986Z"/>
    </g>
    <g filter="url(#v)">
      <path fill="#fff" d="m444.375 140.533-3.113 3.111c8.162 9.674 13.392 21.871 14.37 35.235h4.403c-.996-14.578-6.719-27.866-15.66-38.346Z"/>
    </g>
    <g filter="url(#w)">
      <path fill="#fff" d="M34.83 273.392c16.732 0 30.296-13.554 30.296-30.275 0-16.72-13.564-30.274-30.296-30.274-16.731 0-30.295 13.554-30.295 30.274 0 16.721 13.564 30.275 30.295 30.275Z"/>
    </g>
    <g filter="url(#x)">
      <path fill="#666" d="M38.917 268.236c13.881-2.251 23.308-15.323 21.055-29.195S44.638 215.748 30.757 218C16.875 220.252 7.448 233.323 9.7 247.196c2.254 13.872 15.334 23.292 29.216 21.04Z"/>
    </g>
    <g filter="url(#y)">
      <path fill="url(#z)" d="M34.83 265.463c12.35 0 22.361-10.004 22.361-22.346 0-12.341-10.011-22.345-22.36-22.345-12.35 0-22.361 10.004-22.361 22.345 0 12.342 10.011 22.346 22.36 22.346Z"/>
    </g>
    <g filter="url(#A)">
      <path fill="#fff" d="M327.93 152.863c16.732 0 30.296-13.555 30.296-30.275s-13.564-30.275-30.296-30.275c-16.731 0-30.295 13.555-30.295 30.275s13.564 30.275 30.295 30.275Z"/>
    </g>
    <g filter="url(#B)">
      <path fill="#666" d="M327.93 148.035c14.064 0 25.465-11.393 25.465-25.447 0-14.054-11.401-25.447-25.465-25.447-14.063 0-25.464 11.393-25.464 25.447 0 14.054 11.401 25.447 25.464 25.447Z"/>
    </g>
    <g filter="url(#C)">
      <path fill="url(#D)" d="M350.295 122.726c.077-12.341-9.871-22.408-22.22-22.485-12.349-.078-22.423 9.864-22.501 22.204-.078 12.341 9.871 22.408 22.22 22.486 12.349.077 22.423-9.864 22.501-22.205Z"/>
    </g>
    <g filter="url(#E)">
      <path fill="#fff" d="M118.493 65.282c16.732 0 30.295-13.554 30.295-30.274S135.225 4.733 118.493 4.733c-16.731 0-30.295 13.554-30.295 30.275 0 16.72 13.564 30.274 30.295 30.274Z"/>
    </g>
    <g filter="url(#F)">
      <path fill="#666" d="M122.305 60.166c13.905-2.104 23.47-15.074 21.365-28.97-2.105-13.895-15.084-23.454-28.99-21.35-13.905 2.104-23.47 15.074-21.365 28.97 2.106 13.895 15.085 23.454 28.99 21.35Z"/>
    </g>
    <g filter="url(#G)">
      <path fill="url(#H)" d="M140.857 35.337c.181-12.34-9.682-22.49-22.03-22.67-12.348-.182-22.505 9.675-22.686 22.015-.181 12.34 9.682 22.49 22.03 22.67 12.348.181 22.505-9.675 22.686-22.015Z"/>
    </g>
    <g filter="url(#I)">
      <path fill="#fff" d="M36.662 153.97c16.731 0 30.295-13.555 30.295-30.275S53.393 93.42 36.662 93.42c-16.732 0-30.296 13.555-30.296 30.275S19.93 153.97 36.662 153.97Z"/>
    </g>
    <g filter="url(#J)">
      <path fill="#C6C6C6" d="M54.671 141.689c9.945-9.938 9.945-26.05 0-35.987-9.944-9.938-26.067-9.938-36.012 0-9.944 9.937-9.944 26.049 0 35.987 9.945 9.938 26.068 9.938 36.012 0Z"/>
    </g>
    <g filter="url(#K)">
      <path fill="url(#L)" d="M59.037 123.999c.162-12.34-9.718-22.474-22.066-22.636-12.348-.162-22.49 9.711-22.651 22.051-.162 12.34 9.717 22.475 22.066 22.636 12.348.162 22.49-9.711 22.651-22.051Z"/>
    </g>
    <g filter="url(#M)">
      <path fill="#fff" d="M245.848 273.757c16.732 0 30.295-13.555 30.295-30.275s-13.563-30.274-30.295-30.274c-16.731 0-30.295 13.554-30.295 30.274s13.564 30.275 30.295 30.275Z"/>
    </g>
    <g filter="url(#N)">
      <path fill="#C6C6C6" d="M263.858 261.476c9.944-9.937 9.944-26.05 0-35.987-9.945-9.938-26.068-9.938-36.012 0-9.945 9.937-9.945 26.05 0 35.987 9.944 9.938 26.067 9.938 36.012 0Z"/>
    </g>
    <g filter="url(#O)">
      <path fill="url(#P)" d="M268.224 243.786c.161-12.34-9.718-22.474-22.066-22.636-12.349-.161-22.49 9.711-22.652 22.051-.162 12.34 9.718 22.475 22.066 22.637 12.349.161 22.49-9.712 22.652-22.052Z"/>
    </g>
    <g filter="url(#Q)">
      <path fill="#fff" d="M486.642 37.627c.366-16.728-12.889-30.584-29.605-30.95-16.716-.366-30.564 12.898-30.93 29.626-.366 16.728 12.889 30.584 29.605 30.95 16.716.365 30.564-12.898 30.93-29.626Z"/>
    </g>
    <g filter="url(#R)">
      <path fill="#C6C6C6" d="M474.758 19.353c-9.718-10.16-25.826-10.512-35.979-.787-10.153 9.725-10.505 25.844-.788 36.003 9.718 10.16 25.827 10.512 35.979.787 10.153-9.724 10.506-25.844.788-36.003Z"/>
    </g>
    <g filter="url(#S)">
      <path fill="url(#T)" d="M457.168 14.601c-12.334-.431-22.682 9.224-23.113 21.566-.432 12.342 9.217 22.697 21.55 23.128 12.334.432 22.682-9.224 23.113-21.565.432-12.342-9.217-22.697-21.55-23.129Z"/>
    </g>
    <g filter="url(#U)">
      <path fill="#fff" d="M540.746 152.863c16.732 0 30.295-13.555 30.295-30.275s-13.563-30.275-30.295-30.275c-16.731 0-30.295 13.555-30.295 30.275s13.564 30.275 30.295 30.275Z"/>
    </g>
    <g filter="url(#V)">
      <path fill="#C6C6C6" d="M540.746 148.035c14.064 0 25.465-11.393 25.465-25.447 0-14.054-11.401-25.447-25.465-25.447-14.063 0-25.464 11.393-25.464 25.447 0 14.054 11.401 25.447 25.464 25.447Z"/>
    </g>
    <g filter="url(#W)">
      <path fill="url(#X)" d="M563.1 122.73c.078-12.341-9.87-22.408-22.22-22.485-12.349-.078-22.423 9.864-22.5 22.205-.078 12.34 9.87 22.408 22.219 22.485 12.35.078 22.423-9.864 22.501-22.205Z"/>
    </g>
    <path fill="#fff" d="m77.92 236.167-6.938-15.525 3.11-1.389 6.147 6.365c.394.413.786.845 1.178 1.297.4.428.793.861 1.177 1.296l.095-.042a62.202 62.202 0 0 0-.18-1.742 96.773 96.773 0 0 1-.204-1.732l-.713-8.794 3.134-1.4 6.937 15.524-2.54 1.135-3.171-7.098c-.22-.49-.44-1.027-.664-1.611l-.642-1.82c-.198-.614-.38-1.169-.545-1.665l-.095.042.355 4.171.578 8.114-1.637.731-5.683-5.833-2.847-3.056-.095.042c.26.454.544.963.854 1.527a35.7 35.7 0 0 1 .927 1.693c.302.548.563 1.068.782 1.558l3.172 7.098-2.493 1.114Zm17.686-7.904-6.937-15.525 3.11-1.389 6.148 6.365c.393.413.785.845 1.177 1.297.4.428.793.861 1.177 1.296l.095-.042a61.46 61.46 0 0 0-.18-1.742 99.607 99.607 0 0 1-.204-1.732l-.712-8.794 3.133-1.401 6.938 15.525-2.54 1.135-3.172-7.098a31.5 31.5 0 0 1-.663-1.611l-.643-1.82a235.62 235.62 0 0 0-.544-1.665l-.095.042.354 4.171.579 8.113-1.638.732-5.683-5.833-2.846-3.056-.095.042c.26.454.544.963.853 1.527.325.557.634 1.121.927 1.693.302.548.563 1.068.782 1.558l3.172 7.098-2.493 1.114Zm17.688-7.904-6.938-15.525 2.754-1.23 6.937 15.524-2.753 1.231ZM74.74 148.695l6.518-15.705 3.146 1.305-.404 8.841a37.53 37.53 0 0 1-.133 1.746 62.286 62.286 0 0 1-.134 1.746l.096.04c.39-.439.77-.882 1.143-1.328.379-.462.752-.907 1.118-1.337l5.902-6.559 3.17 1.316-6.517 15.705-2.57-1.066 2.98-7.181c.206-.496.444-1.025.715-1.589l.882-1.717c.31-.566.588-1.079.836-1.539l-.096-.04-2.788 3.122-5.5 5.994-1.656-.688.336-8.136.266-4.168-.096-.04a97.83 97.83 0 0 1-.523 1.668c-.182.619-.38 1.232-.594 1.837-.191.597-.39 1.143-.596 1.639l-2.98 7.18-2.52-1.046Zm17.894 7.426 6.517-15.706 3.146 1.306-.403 8.84c-.03.57-.074 1.152-.134 1.746a62.072 62.072 0 0 1-.133 1.747l.096.039c.389-.439.769-.881 1.142-1.327.379-.462.752-.908 1.118-1.338l5.903-6.558 3.17 1.315-6.518 15.706-2.569-1.067 2.979-7.18c.206-.496.445-1.026.716-1.589l.882-1.717c.309-.566.588-1.079.835-1.54l-.096-.039-2.787 3.122-5.5 5.993-1.657-.687.337-8.137.266-4.168-.096-.04a98.4 98.4 0 0 1-.524 1.669c-.182.619-.38 1.231-.593 1.837-.191.596-.39 1.142-.596 1.639l-2.98 7.18-2.521-1.046Zm17.893 7.425 6.518-15.705 2.785 1.156-6.517 15.705-2.786-1.156Zm18.546-81.4 15.685-6.567 1.315 3.142-6.509 5.995c-.422.383-.864.765-1.324 1.146-.438.39-.88.772-1.324 1.147l.04.095a61.889 61.889 0 0 0 1.745-.139 98.77 98.77 0 0 1 1.736-.163l8.809-.503 1.326 3.166-15.685 6.567-1.074-2.566 7.17-3.002a31.665 31.665 0 0 1 1.627-.625l1.835-.6c.619-.183 1.178-.351 1.677-.504l-.04-.096-4.177.255-8.126.386-.692-1.655 5.966-5.542 3.123-2.773-.04-.096c-.459.248-.975.52-1.546.816-.565.312-1.137.608-1.715.887-.555.29-1.081.537-1.577.745l-7.17 3.002-1.055-2.518Zm7.482 17.87 15.685-6.567 1.315 3.142-6.51 5.995c-.422.383-.863.766-1.324 1.146-.438.39-.879.772-1.324 1.147l.04.096a65.943 65.943 0 0 0 1.746-.139 92.556 92.556 0 0 1 1.736-.163l8.809-.503 1.325 3.165-15.685 6.567-1.074-2.566 7.171-3.002a31.2 31.2 0 0 1 1.627-.625l1.835-.599c.618-.184 1.177-.352 1.677-.505l-.04-.096-4.178.255-8.125.386-.693-1.655 5.967-5.542 3.123-2.773-.04-.096c-.46.248-.975.52-1.547.816a36.1 36.1 0 0 1-1.714.887 20.88 20.88 0 0 1-1.577.745l-7.171 3.002-1.054-2.518Zm7.481 17.87 15.685-6.567 1.165 2.782-15.685 6.567-1.165-2.782Zm72.438 4.139-16.116-5.424 1.832-5.445c.376-1.118.861-2.07 1.456-2.858.599-.804 1.338-1.341 2.216-1.613.867-.293 1.9-.238 3.099.165 1.232.415 2.127 1.045 2.683 1.891.563.829.845 1.784.847 2.863l8.021-1.58-1.078 3.204-7.478 1.351-.829 2.464 6.309 2.123-.962 2.859Zm-7.614-5.744.771-2.292c.371-1.101.423-2.016.156-2.746-.277-.752-.868-1.279-1.771-1.584-.92-.309-1.66-.229-2.221.241-.571.448-1.042 1.222-1.412 2.322l-.772 2.292 5.249 1.767Zm12.521-8.839-16.116-5.424 3.268-9.709 2.415.813-2.306 6.85 4.115 1.385 1.949-5.79 2.415.812-1.949 5.791 4.756 1.601 2.389-7.097 2.414.812-3.35 9.956Zm6.342-17.867a8.83 8.83 0 0 1-1.677 2.947 8.685 8.685 0 0 1-2.646 2.073l-1.383-2.331a7.845 7.845 0 0 0 1.995-1.524 5.728 5.728 0 0 0 1.239-2.052c.309-.92.355-1.681.138-2.285-.218-.604-.639-1.01-1.263-1.22-.673-.227-1.238-.152-1.694.225-.451.36-.954.85-1.509 1.467l-1.707 1.895a9.22 9.22 0 0 1-1.41 1.254 4.785 4.785 0 0 1-1.795.767c-.663.124-1.389.054-2.178-.212-.854-.287-1.54-.774-2.059-1.46-.53-.71-.856-1.532-.98-2.47-.134-.96-.024-1.965.33-3.017a7.11 7.11 0 0 1 1.479-2.52 7.202 7.202 0 0 1 2.233-1.744l1.334 2.067a6.881 6.881 0 0 0-1.558 1.287c-.434.475-.767 1.058-1 1.748-.254.756-.289 1.43-.104 2.022.174.57.556.956 1.148 1.155.41.138.794.139 1.151.003a3.542 3.542 0 0 0 1.013-.729c.314-.333.635-.692.965-1.074l1.65-1.887c.731-.814 1.536-1.412 2.414-1.793.862-.387 1.876-.384 3.042.008a4.6 4.6 0 0 1 2.158 1.495c.568.703.928 1.565 1.078 2.585.14.998.005 2.105-.404 3.32Zm3.572-11.592-13.701-4.61-1.567 4.656-2.415-.812 4.096-12.173 2.415.812-1.567 4.658 13.701 4.61-.962 2.859Zm123.179 234.042-16.116-5.424 1.832-5.446c.376-1.117.861-2.069 1.456-2.857.599-.804 1.338-1.341 2.216-1.613.867-.293 1.9-.238 3.099.165 1.232.415 2.127 1.045 2.683 1.891.563.829.845 1.784.847 2.863l8.021-1.58-1.078 3.204-7.478 1.351-.829 2.464 6.309 2.123-.962 2.859Zm-7.614-5.745.771-2.291c.371-1.101.423-2.016.156-2.746-.277-.752-.868-1.28-1.771-1.584-.92-.309-1.66-.229-2.221.241-.571.447-1.042 1.222-1.412 2.322l-.772 2.292 5.249 1.766Zm12.521-8.838-16.116-5.424 3.268-9.709 2.415.813-2.306 6.85 4.115 1.385 1.949-5.791 2.415.813-1.949 5.791 4.756 1.601 2.389-7.097 2.414.812-3.35 9.956Zm6.342-17.867a8.83 8.83 0 0 1-1.677 2.947 8.67 8.67 0 0 1-2.646 2.072l-1.383-2.33a7.86 7.86 0 0 0 1.995-1.524 5.733 5.733 0 0 0 1.239-2.052c.309-.92.355-1.682.138-2.285-.218-.604-.639-1.011-1.263-1.221-.673-.226-1.238-.151-1.694.226-.451.36-.954.849-1.509 1.467l-1.707 1.895a9.193 9.193 0 0 1-1.41 1.253 4.763 4.763 0 0 1-1.795.768c-.663.124-1.389.054-2.178-.212-.854-.287-1.54-.774-2.059-1.461-.53-.708-.856-1.532-.98-2.469-.134-.96-.024-1.965.33-3.017a7.116 7.116 0 0 1 1.479-2.52 7.214 7.214 0 0 1 2.233-1.745l1.334 2.068a6.893 6.893 0 0 0-1.558 1.286c-.434.476-.767 1.059-1 1.749-.254.755-.289 1.43-.104 2.022.174.571.556.955 1.148 1.154.41.139.794.14 1.151.004a3.542 3.542 0 0 0 1.013-.729c.314-.334.635-.692.965-1.074l1.65-1.887c.731-.814 1.536-1.412 2.414-1.793.862-.387 1.876-.384 3.042.008.871.293 1.59.792 2.158 1.495.568.703.928 1.565 1.078 2.585.14.998.005 2.104-.404 3.32Zm3.572-11.592-13.701-4.611-1.567 4.657-2.415-.812 4.096-12.174 2.415.813-1.567 4.657 13.701 4.611-.962 2.859ZM249.117 163.197l-4.875-16.29 3.263-.977 5.275 7.106c.336.46.67.94 1 1.438.341.477.675.956 1 1.437l.1-.029c.023-.586.039-1.17.046-1.751.002-.598.009-1.179.021-1.743l.429-8.813 3.288-.984 4.875 16.29-2.665.797-2.229-7.447a31.871 31.871 0 0 1-.45-1.684l-.402-1.888c-.117-.634-.226-1.208-.325-1.721l-.1.03-.187 4.181-.473 8.121-1.719.514-4.882-6.518-2.428-3.398-.1.03c.199.483.416 1.024.649 1.624.251.594.484 1.194.701 1.798.229.583.42 1.132.575 1.647l2.228 7.447-2.615.783Zm18.56-5.555-4.876-16.29 3.263-.976 5.275 7.106c.337.46.67.939 1 1.437.342.477.676.956 1.001 1.438l.099-.03c.024-.586.039-1.17.046-1.751.002-.597.009-1.178.021-1.743l.429-8.813 3.288-.984 4.876 16.29-2.665.798-2.229-7.448a30.93 30.93 0 0 1-.45-1.684l-.402-1.888c-.118-.634-.226-1.208-.325-1.721l-.1.03-.187 4.181-.474 8.121-1.718.514-4.882-6.518-2.428-3.398-.1.03c.199.483.415 1.025.649 1.624.25.595.484 1.194.701 1.799.229.582.42 1.131.574 1.646l2.229 7.448-2.615.782Zm18.559-5.554-4.875-16.29 2.889-.865 4.876 16.29-2.89.865Zm-2.119 85.109-4.875-16.29 3.263-.977 5.275 7.106c.336.46.67.94 1 1.438.341.477.675.956 1 1.437l.1-.029c.023-.586.039-1.17.046-1.751.002-.598.009-1.179.021-1.743l.429-8.813 3.288-.984 4.875 16.29-2.665.797-2.229-7.447a31.871 31.871 0 0 1-.45-1.684l-.402-1.888c-.117-.634-.226-1.208-.325-1.721l-.1.03-.187 4.181-.473 8.121-1.719.514-4.882-6.518-2.428-3.398-.1.03c.199.483.416 1.024.649 1.624.251.594.484 1.194.701 1.798.229.583.42 1.132.575 1.647l2.228 7.447-2.615.783Zm18.56-5.555-4.876-16.29 3.263-.976 5.275 7.106c.337.46.67.939 1 1.437.342.477.676.956 1.001 1.438l.099-.03c.024-.586.039-1.17.046-1.751.002-.597.009-1.178.021-1.743l.429-8.813 3.288-.984 4.876 16.29-2.665.798-2.229-7.448a30.93 30.93 0 0 1-.45-1.684l-.402-1.888c-.118-.634-.226-1.208-.325-1.721l-.1.03-.187 4.181-.474 8.121-1.718.514-4.882-6.518-2.428-3.398-.1.03c.199.483.415 1.025.649 1.624.25.595.484 1.194.701 1.799.229.582.42 1.131.574 1.646l2.229 7.448-2.615.782Zm18.559-5.554-4.875-16.29 2.889-.865 4.876 16.29-2.89.865Zm146.495-62.496-7.017-15.488 3.102-1.406 6.181 6.334c.396.411.79.841 1.184 1.29.403.427.798.857 1.184 1.291l.095-.043a60.961 60.961 0 0 0-.189-1.741c-.079-.593-.15-1.17-.213-1.731l-.758-8.791 3.126-1.416 7.018 15.488-2.534 1.149-3.209-7.082a31.998 31.998 0 0 1-.671-1.608l-.652-1.817c-.202-.612-.386-1.166-.553-1.662l-.095.043.376 4.169.62 8.111-1.634.74-5.712-5.804-2.863-3.042-.094.043c.262.453.549.96.861 1.523.328.555.64 1.118.936 1.688.305.547.568 1.065.79 1.554l3.208 7.081-2.487 1.127Zm17.647-7.995-7.018-15.488 3.103-1.406 6.181 6.334c.395.41.79.841 1.184 1.29.402.427.797.857 1.184 1.29l.094-.043a61.756 61.756 0 0 0-.189-1.741c-.078-.592-.149-1.169-.213-1.73l-.758-8.791 3.127-1.416 7.017 15.488-2.534 1.148-3.208-7.081a31.06 31.06 0 0 1-.672-1.608l-.652-1.817c-.201-.613-.386-1.167-.553-1.662l-.095.043.376 4.169.621 8.111-1.634.74-5.713-5.804-2.862-3.042-.095.043c.262.452.549.96.861 1.523.328.555.64 1.118.936 1.688.305.547.568 1.065.79 1.554l3.208 7.081-2.486 1.127Zm17.646-7.995-7.017-15.489 2.747-1.244 7.017 15.488-2.747 1.245Zm-69.883-29.893-15.759-6.386 1.279-3.157 8.844.33c.57.025 1.152.064 1.747.119.586.031 1.168.071 1.748.119l.039-.097a63.58 63.58 0 0 0-1.338-1.131 91.534 91.534 0 0 1-1.346-1.107l-6.608-5.847 1.289-3.181 15.759 6.386-1.045 2.578-7.204-2.919a31.165 31.165 0 0 1-1.595-.703l-1.725-.867c-.568-.305-1.084-.579-1.546-.823l-.039.097 3.145 2.761 6.04 5.449-.674 1.663-8.139-.269-4.171-.231-.039.097c.502.147 1.059.317 1.673.509.621.177 1.235.369 1.842.578.598.186 1.146.38 1.644.582l7.205 2.92-1.026 2.53Zm7.276-17.955-15.759-6.386 1.279-3.157 8.844.33c.57.025 1.152.065 1.747.119.586.031 1.168.071 1.748.119l.039-.097a63.274 63.274 0 0 0-1.338-1.13 93.347 93.347 0 0 1-1.346-1.108l-6.608-5.847 1.289-3.181 15.759 6.386-1.045 2.579-7.205-2.92a31.471 31.471 0 0 1-1.594-.703l-1.725-.867a207.32 207.32 0 0 0-1.546-.823l-.039.097 3.145 2.761 6.04 5.45-.674 1.662-8.139-.268-4.171-.232-.039.097c.502.147 1.059.317 1.673.51.621.176 1.235.369 1.842.577.598.187 1.146.38 1.644.582l7.205 2.92-1.026 2.53Zm7.276-17.955-15.759-6.386 1.133-2.795 15.759 6.386-1.133 2.795Zm-.784 242.451-6.117-15.866 2.814-1.085 6.117 15.865-2.814 1.086Zm6.775-2.804-7.408-15.305 2.785-1.348 8.943 6.301 3.142 2.494.094-.045c-.44-.75-.93-1.562-1.469-2.438a34.698 34.698 0 0 1-1.408-2.611l-3.217-6.646 2.598-1.258 7.407 15.306-2.785 1.348-8.942-6.302-3.143-2.494-.093.045c.455.782.937 1.598 1.445 2.449.524.844.994 1.695 1.409 2.554l3.24 6.693-2.598 1.257Zm18.166-9.421-7.582-12.308-4.184 2.578-1.336-2.17 10.936-6.736 1.336 2.169-4.184 2.577 7.582 12.308-2.568 1.582Zm9.036-5.818-10.313-13.519 8.145-6.213 1.546 2.026-5.747 4.383 2.633 3.453 4.858-3.706 1.545 2.026-4.858 3.705 3.044 3.99 5.953-4.541 1.546 2.026-8.352 6.37Zm10.986-8.639-11.558-12.472 4.215-3.906c.864-.801 1.746-1.405 2.645-1.813.911-.419 1.817-.538 2.718-.356.901.157 1.782.699 2.642 1.627.884.954 1.368 1.935 1.452 2.944.097.997-.112 1.97-.626 2.92l7.799 2.449-2.479 2.298-7.213-2.391-1.907 1.768 4.524 4.882-2.212 2.05Zm-3.938-8.687 1.774-1.643c.852-.79 1.335-1.569 1.45-2.337.116-.793-.15-1.539-.798-2.238-.66-.712-1.348-.996-2.065-.851-.716.12-1.5.574-2.351 1.364l-1.774 1.643 3.764 4.062Zm17.012-4.121-16.241-7.315 2.122-2.393 7.987 3.887a85.55 85.55 0 0 1 2.562 1.265c.811.418 1.671.845 2.582 1.282l.069-.078a45.538 45.538 0 0 0-1.581-2.41 178.51 178.51 0 0 1-1.579-2.374l-4.829-7.446 2.053-2.315 9.218 15.232-2.363 2.665Zm7.114-8.243-13.459-10.391 1.843-2.387 13.459 10.391-1.843 2.387Zm4.37-5.889-14.108-9.493 5.718-8.499 2.114 1.423-4.035 5.996 3.603 2.424 3.411-5.069 2.114 1.422-3.411 5.07 4.163 2.801 4.18-6.213 2.114 1.423-5.863 8.715Zm8.402-13.215-16.611-4.964 1.447-2.735 8.277 2.702c.862.299 1.731.602 2.608.909.869.284 1.731.583 2.584.897l.049-.092a152.13 152.13 0 0 0-2.135-1.747 636.763 636.763 0 0 1-2.145-1.782l-6.612-5.851 1.228-2.321 8.557 2.173c.87.245 1.756.498 2.658.759.885.253 1.779.51 2.68.771l.049-.092a1016.3 1016.3 0 0 1-2.219-1.644 147.8 147.8 0 0 0-2.208-1.609l-6.891-5.322 1.35-2.551 13.51 10.824-1.75 3.309-8.891-2.321-1.941-.556a94.772 94.772 0 0 1-1.882-.613l-.049.092c.511.407 1.024.826 1.542 1.257.525.415 1.047.838 1.564 1.268l6.945 5.998-1.714 3.241Zm-111.811 51.282-3.64-13.991-4.755 1.237-.642-2.466 12.431-3.233.641 2.466-4.756 1.237 3.64 13.99-2.919.76Zm10.353-2.891-5.718-16.013 5.411-1.933c1.11-.396 2.159-.605 3.145-.625 1.003-.027 1.882.22 2.639.741.767.499 1.364 1.345 1.789 2.536.437 1.225.496 2.317.176 3.278-.303.955-.878 1.767-1.724 2.438l6.206 5.321-3.183 1.136-5.691-5.035-2.448.874 2.238 6.268-2.84 1.014Zm-.202-9.535 2.277-.813c1.093-.391 1.844-.916 2.253-1.577.418-.684.467-1.474.147-2.372-.327-.914-.848-1.446-1.564-1.595-.705-.172-1.605-.062-2.698.328l-2.278.814 1.863 5.215Zm13.744-5.451.348 2.136 3.926-1.856-1.43-1.625a89.664 89.664 0 0 1-1.918-2.17c-.627-.758-1.25-1.509-1.869-2.251l-.094.044c.203.959.391 1.924.564 2.897.181.95.338 1.892.473 2.825Zm-1.281 10.614-2.261-17.74 3.197-1.511 12.274 13.005-2.867 1.356-3.166-3.594-5.171 2.445.768 4.727-2.774 1.312Zm14.997-7.331-8.778-14.563 3.896-2.348c2.227-1.343 4.326-1.788 6.298-1.338 1.972.451 3.683 1.879 5.132 4.284 1.459 2.419 1.948 4.624 1.468 6.614-.49 1.975-1.818 3.615-3.986 4.922l-4.03 2.429Zm1.321-3.65 1.136-.684c1.47-.886 2.35-1.994 2.642-3.323.282-1.345-.118-2.915-1.2-4.711-1.074-1.781-2.258-2.839-3.552-3.172-1.294-.333-2.675-.057-4.145.829l-1.136.685 6.255 10.376Zm12.492-4.881-9.934-13.801 2.448-1.762 9.934 13.801-2.448 1.762Zm8.489-6.614-9.282-11.083-3.767 3.155-1.636-1.954 9.847-8.246 1.636 1.953-3.767 3.155 9.281 11.083-2.312 1.937Zm8.147-7.016-11.784-12.258 2.174-2.09 11.784 12.258-2.174 2.09Zm9.745-9.97c-.971 1.107-2.096 1.85-3.373 2.229-1.29.367-2.642.357-4.055-.029-1.415-.411-2.813-1.222-4.194-2.434-1.382-1.211-2.355-2.48-2.921-3.807-.555-1.339-.721-2.661-.5-3.965.222-1.304.819-2.51 1.79-3.618.983-1.12 2.107-1.876 3.371-2.266 1.264-.39 2.59-.39 3.979-.002 1.4.375 2.791 1.168 4.173 2.379 1.381 1.212 2.362 2.499 2.942 3.861.579 1.338.771 2.67.575 3.997-.208 1.316-.804 2.534-1.787 3.655Zm-1.974-1.732c.88-1.003 1.159-2.176.838-3.518-.334-1.354-1.218-2.66-2.652-3.917-1.433-1.257-2.817-1.94-4.15-2.05-1.347-.12-2.461.321-3.341 1.325-.88 1.003-1.172 2.165-.877 3.484.282 1.308 1.14 2.591 2.574 3.848 1.433 1.257 2.843 1.963 4.229 2.118 1.372.144 2.499-.286 3.379-1.29Zm8.746-6.818-13.927-9.756 1.775-2.534 10.88 1.145 3.959.647.06-.085c-.75-.441-1.573-.912-2.471-1.413a35.306 35.306 0 0 1-2.502-1.594l-6.047-4.237 1.655-2.364 13.927 9.757-1.775 2.534-10.88-1.146-3.959-.647-.06.086c.778.46 1.597.938 2.456 1.434a28.02 28.02 0 0 1 2.474 1.543l6.09 4.266-1.655 2.364Zm9.596-14.085-14.853-8.277 1.506-2.703 10.94.024 4.005.238.051-.091c-.791-.361-1.659-.745-2.603-1.152a35.239 35.239 0 0 1-2.652-1.33l-6.45-3.594 1.405-2.521 14.853 8.277-1.506 2.703-10.94-.024-4.005-.238-.05.091c.821.378 1.684.77 2.589 1.175.914.39 1.787.817 2.62 1.281l6.495 3.62-1.405 2.521Zm1.258-21.832 1.661 1.389 1.756-3.972-2.144-.294a89.35 89.35 0 0 1-2.871-.388c-.97-.163-1.932-.323-2.886-.48l-.042.095a84.333 84.333 0 0 1 2.321 1.823c.758.6 1.493 1.209 2.205 1.827Zm5.973 8.867-13.312-11.941 1.43-3.234 17.791 1.811-1.283 2.901-4.745-.648-2.313 5.231 3.673 3.074-1.241 2.806Zm6.599-15.339-16.039-5.646 1.001-2.845 13.636 4.8 2.348-6.67 2.404.846-3.35 9.515Z"/>
  </g>
  <path fill="#666" d="M29.412 250.171v-2.444h3.692v-10.868h-3.042v-1.872a15.79 15.79 0 0 0 2.132-.546 10.11 10.11 0 0 0 1.69-.806h2.236v14.092h3.25v2.444h-9.958Z"/>
  <path fill="#C6C6C6" d="M30.476 131.171v-1.742a143.834 143.834 0 0 0 3.978-3.978c1.127-1.179 1.994-2.245 2.6-3.198.607-.971.91-1.872.91-2.704 0-.867-.234-1.56-.702-2.08-.468-.52-1.144-.78-2.028-.78-.641 0-1.23.182-1.768.546a8.498 8.498 0 0 0-1.456 1.3l-1.664-1.664c.763-.815 1.552-1.439 2.366-1.872.815-.451 1.786-.676 2.912-.676 1.595 0 2.86.459 3.796 1.378.954.919 1.43 2.149 1.43 3.692 0 .971-.277 1.967-.832 2.99-.537 1.005-1.265 2.037-2.184 3.094a92.216 92.216 0 0 1-2.99 3.328c.434-.035.902-.069 1.404-.104a13.29 13.29 0 0 1 1.352-.078h4.056v2.548h-11.18Z"/>
  <path fill="#666" d="M117.728 42.483c-1.334 0-2.461-.225-3.38-.676-.901-.468-1.646-1.023-2.236-1.664l1.43-1.924a8.004 8.004 0 0 0 1.716 1.3c.642.347 1.378.52 2.21.52.902 0 1.63-.217 2.184-.65.572-.45.858-1.066.858-1.846 0-.572-.147-1.066-.442-1.482-.277-.433-.771-.763-1.482-.988-.693-.225-1.672-.338-2.938-.338v-2.184c1.63 0 2.756-.251 3.38-.754.624-.503.936-1.135.936-1.898 0-.693-.216-1.23-.65-1.612-.433-.399-1.031-.598-1.794-.598a3.62 3.62 0 0 0-1.768.442 7.053 7.053 0 0 0-1.56 1.118l-1.534-1.846a9.916 9.916 0 0 1 2.262-1.508c.815-.381 1.716-.572 2.704-.572 1.595 0 2.886.381 3.874 1.144.988.745 1.482 1.82 1.482 3.224 0 .919-.26 1.699-.78 2.34-.502.624-1.204 1.11-2.106 1.456v.104c.971.26 1.786.737 2.444 1.43.659.693.988 1.586.988 2.678 0 1.005-.268 1.863-.806 2.574-.52.71-1.222 1.257-2.106 1.638-.866.381-1.828.572-2.886.572Zm206.192 80.11h4.342v-3.744c0-.485.018-1.057.052-1.716.035-.659.061-1.231.078-1.716h-.104c-.208.433-.424.858-.65 1.274l-.702 1.3-3.016 4.602Zm4.342 6.578v-4.264h-7.306v-2.028l6.552-10.244h3.562v9.958h2.08v2.314h-2.08v4.264h-2.808Z"/>
  <path fill="#C6C6C6" d="M244.754 250.483c-1.334 0-2.461-.225-3.38-.676-.901-.468-1.655-1.005-2.262-1.612l1.378-1.924a9.486 9.486 0 0 0 1.69 1.248c.624.347 1.352.52 2.184.52.919 0 1.682-.277 2.288-.832.607-.555.91-1.335.91-2.34 0-.988-.277-1.751-.832-2.288-.554-.537-1.291-.806-2.21-.806-.537 0-.988.078-1.352.234-.364.139-.797.373-1.3.702l-1.43-.91.494-8.164h8.84v2.522h-6.24l-.338 4.004a5.339 5.339 0 0 1 1.014-.39 4.07 4.07 0 0 1 1.17-.156c.954 0 1.82.182 2.6.546a4.29 4.29 0 0 1 1.872 1.69c.486.763.728 1.742.728 2.938 0 1.196-.277 2.219-.832 3.068a5.37 5.37 0 0 1-2.132 1.95 6.202 6.202 0 0 1-2.86.676ZM454.356 44.171c.104-1.959.312-3.71.624-5.252.312-1.56.789-3.042 1.43-4.446.642-1.404 1.491-2.843 2.548-4.316h-7.826v-2.522h11.102v1.82c-.97 1.196-1.759 2.34-2.366 3.432a18.436 18.436 0 0 0-1.404 3.328 21.879 21.879 0 0 0-.728 3.614 56.653 56.653 0 0 0-.338 4.342h-3.042Z"/>
  <path fill="#666" d="M540.956 121.111c-.468 0-.962.147-1.482.442-.52.277-1.014.763-1.482 1.456.156 1.473.512 2.539 1.066 3.198.555.659 1.231.988 2.028.988.694 0 1.274-.269 1.742-.806.486-.555.728-1.335.728-2.34 0-.971-.234-1.699-.702-2.184-.45-.503-1.083-.754-1.898-.754Zm.182 8.372a5.554 5.554 0 0 1-2.99-.858c-.918-.572-1.655-1.456-2.21-2.652-.537-1.196-.806-2.721-.806-4.576 0-2.149.304-3.883.91-5.2.624-1.335 1.43-2.314 2.418-2.938.988-.624 2.046-.936 3.172-.936 1.006 0 1.872.182 2.6.546.728.364 1.335.806 1.82 1.326l-1.612 1.82a3.201 3.201 0 0 0-1.17-.884 3.12 3.12 0 0 0-1.456-.364c-.693 0-1.326.191-1.898.572-.572.381-1.04 1.023-1.404 1.924-.346.884-.546 2.089-.598 3.614a5.425 5.425 0 0 1 1.716-1.43c.659-.347 1.283-.52 1.872-.52 1.439 0 2.6.425 3.484 1.274.902.832 1.352 2.115 1.352 3.848 0 1.092-.242 2.045-.728 2.86a5.048 5.048 0 0 1-1.872 1.898c-.78.451-1.646.676-2.6.676Z"/>
  <defs>
    <filter id="c" width="161.526" height="162.832" x="396.167" y="186.716" color-interpolation-filters="sRGB" filterUnits="userSpaceOnUse">
      <feFlood flood-opacity="0" result="BackgroundImageFix"/>
      <feColorMatrix in="SourceAlpha" result="hardAlpha" values="0 0 0 0 0 0 0 0 0 0 0 0 0 0 0 0 0 0 127 0"/>
      <feOffset dx="2" dy="2"/>
      <feGaussianBlur stdDeviation="2"/>
      <feColorMatrix values="0 0 0 0 0.12549 0 0 0 0 0.243137 0 0 0 0 0.478431 0 0 0 0.4 0"/>
      <feBlend in2="BackgroundImageFix" result="effect1_dropShadow_43_11"/>
      <feBlend in="SourceGraphic" in2="effect1_dropShadow_43_11" result="shape"/>
    </filter>
    <filter id="d" width="81.561" height="82.499" x="388.093" y="177.671" color-interpolation-filters="sRGB" filterUnits="userSpaceOnUse">
      <feFlood flood-opacity="0" result="BackgroundImageFix"/>
      <feColorMatrix in="SourceAlpha" result="hardAlpha" values="0 0 0 0 0 0 0 0 0 0 0 0 0 0 0 0 0 0 127 0"/>
      <feOffset/>
      <feGaussianBlur stdDeviation="5"/>
      <feComposite in2="hardAlpha" operator="out"/>
      <feColorMatrix values="0 0 0 0 0 0 0 0 0 0 0 0 0 0 0 0 0 0 0.25 0"/>
      <feBlend in2="BackgroundImageFix" result="effect1_dropShadow_43_11"/>
      <feBlend in="SourceGraphic" in2="effect1_dropShadow_43_11" result="shape"/>
    </filter>
    <filter id="e" width="124.502" height="111.875" x="221.055" y="73.004" color-interpolation-filters="sRGB" filterUnits="userSpaceOnUse">
      <feFlood flood-opacity="0" result="BackgroundImageFix"/>
      <feColorMatrix in="SourceAlpha" result="hardAlpha" values="0 0 0 0 0 0 0 0 0 0 0 0 0 0 0 0 0 0 127 0"/>
      <feOffset dx="2" dy="2"/>
      <feGaussianBlur stdDeviation="2"/>
      <feColorMatrix values="0 0 0 0 0.12549 0 0 0 0 0.243137 0 0 0 0 0.478431 0 0 0 0.4 0"/>
      <feBlend in2="BackgroundImageFix" result="effect1_dropShadow_43_11"/>
      <feBlend in="SourceGraphic" in2="effect1_dropShadow_43_11" result="shape"/>
    </filter>
    <filter id="f" width="111.955" height="124.65" x="183.841" y="23.02" color-interpolation-filters="sRGB" filterUnits="userSpaceOnUse">
      <feFlood flood-opacity="0" result="BackgroundImageFix"/>
      <feColorMatrix in="SourceAlpha" result="hardAlpha" values="0 0 0 0 0 0 0 0 0 0 0 0 0 0 0 0 0 0 127 0"/>
      <feOffset dx="2" dy="2"/>
      <feGaussianBlur stdDeviation="2"/>
      <feColorMatrix values="0 0 0 0 0.12549 0 0 0 0 0.243137 0 0 0 0 0.478431 0 0 0 0.4 0"/>
      <feBlend in2="BackgroundImageFix" result="effect1_dropShadow_43_11"/>
      <feBlend in="SourceGraphic" in2="effect1_dropShadow_43_11" result="shape"/>
    </filter>
    <filter id="g" width="111.955" height="124.65" x="70.158" y="23.02" color-interpolation-filters="sRGB" filterUnits="userSpaceOnUse">
      <feFlood flood-opacity="0" result="BackgroundImageFix"/>
      <feColorMatrix in="SourceAlpha" result="hardAlpha" values="0 0 0 0 0 0 0 0 0 0 0 0 0 0 0 0 0 0 127 0"/>
      <feOffset dx="2" dy="2"/>
      <feGaussianBlur stdDeviation="2"/>
      <feColorMatrix values="0 0 0 0 0.12549 0 0 0 0 0.243137 0 0 0 0 0.478431 0 0 0 0.4 0"/>
      <feBlend in2="BackgroundImageFix" result="effect1_dropShadow_43_11"/>
      <feBlend in="SourceGraphic" in2="effect1_dropShadow_43_11" result="shape"/>
    </filter>
    <filter id="h" width="124.511" height="111.875" x="20.378" y="73.004" color-interpolation-filters="sRGB" filterUnits="userSpaceOnUse">
      <feFlood flood-opacity="0" result="BackgroundImageFix"/>
      <feColorMatrix in="SourceAlpha" result="hardAlpha" values="0 0 0 0 0 0 0 0 0 0 0 0 0 0 0 0 0 0 127 0"/>
      <feOffset dx="2" dy="2"/>
      <feGaussianBlur stdDeviation="2"/>
      <feColorMatrix values="0 0 0 0 0.12549 0 0 0 0 0.243137 0 0 0 0 0.478431 0 0 0 0.4 0"/>
      <feBlend in2="BackgroundImageFix" result="effect1_dropShadow_43_11"/>
      <feBlend in="SourceGraphic" in2="effect1_dropShadow_43_11" result="shape"/>
    </filter>
    <filter id="i" width="124.72" height="111.638" x="20.407" y="186.6" color-interpolation-filters="sRGB" filterUnits="userSpaceOnUse">
      <feFlood flood-opacity="0" result="BackgroundImageFix"/>
      <feColorMatrix in="SourceAlpha" result="hardAlpha" values="0 0 0 0 0 0 0 0 0 0 0 0 0 0 0 0 0 0 127 0"/>
      <feOffset dx="2" dy="2"/>
      <feGaussianBlur stdDeviation="2"/>
      <feColorMatrix values="0 0 0 0 0.12549 0 0 0 0 0.243137 0 0 0 0 0.478431 0 0 0 0.4 0"/>
      <feBlend in2="BackgroundImageFix" result="effect1_dropShadow_43_11"/>
      <feBlend in="SourceGraphic" in2="effect1_dropShadow_43_11" result="shape"/>
    </filter>
    <filter id="j" width="124.502" height="111.875" x="233.678" y="186.6" color-interpolation-filters="sRGB" filterUnits="userSpaceOnUse">
      <feFlood flood-opacity="0" result="BackgroundImageFix"/>
      <feColorMatrix in="SourceAlpha" result="hardAlpha" values="0 0 0 0 0 0 0 0 0 0 0 0 0 0 0 0 0 0 127 0"/>
      <feOffset dx="2" dy="2"/>
      <feGaussianBlur stdDeviation="2"/>
      <feColorMatrix values="0 0 0 0 0.12549 0 0 0 0 0.243137 0 0 0 0 0.478431 0 0 0 0.4 0"/>
      <feBlend in2="BackgroundImageFix" result="effect1_dropShadow_43_11"/>
      <feBlend in="SourceGraphic" in2="effect1_dropShadow_43_11" result="shape"/>
    </filter>
    <filter id="k" width="111.955" height="124.65" x="283.43" y="223.808" color-interpolation-filters="sRGB" filterUnits="userSpaceOnUse">
      <feFlood flood-opacity="0" result="BackgroundImageFix"/>
      <feColorMatrix in="SourceAlpha" result="hardAlpha" values="0 0 0 0 0 0 0 0 0 0 0 0 0 0 0 0 0 0 127 0"/>
      <feOffset dx="2" dy="2"/>
      <feGaussianBlur stdDeviation="2"/>
      <feColorMatrix values="0 0 0 0 0.12549 0 0 0 0 0.243137 0 0 0 0 0.478431 0 0 0 0.4 0"/>
      <feBlend in2="BackgroundImageFix" result="effect1_dropShadow_43_11"/>
      <feBlend in="SourceGraphic" in2="effect1_dropShadow_43_11" result="shape"/>
    </filter>
    <filter id="l" width="113.188" height="125.146" x="396.925" y="21.807" color-interpolation-filters="sRGB" filterUnits="userSpaceOnUse">
      <feFlood flood-opacity="0" result="BackgroundImageFix"/>
      <feColorMatrix in="SourceAlpha" result="hardAlpha" values="0 0 0 0 0 0 0 0 0 0 0 0 0 0 0 0 0 0 127 0"/>
      <feOffset dx="2" dy="2"/>
      <feGaussianBlur stdDeviation="2"/>
      <feColorMatrix values="0 0 0 0 0.12549 0 0 0 0 0.243137 0 0 0 0 0.478431 0 0 0 0.4 0"/>
      <feBlend in2="BackgroundImageFix" result="effect1_dropShadow_43_11"/>
      <feBlend in="SourceGraphic" in2="effect1_dropShadow_43_11" result="shape"/>
    </filter>
    <filter id="m" width="124.72" height="111.638" x="434.099" y="73.251" color-interpolation-filters="sRGB" filterUnits="userSpaceOnUse">
      <feFlood flood-opacity="0" result="BackgroundImageFix"/>
      <feColorMatrix in="SourceAlpha" result="hardAlpha" values="0 0 0 0 0 0 0 0 0 0 0 0 0 0 0 0 0 0 127 0"/>
      <feOffset dx="2" dy="2"/>
      <feGaussianBlur stdDeviation="2"/>
      <feColorMatrix values="0 0 0 0 0.12549 0 0 0 0 0.243137 0 0 0 0 0.478431 0 0 0 0.4 0"/>
      <feBlend in2="BackgroundImageFix" result="effect1_dropShadow_43_11"/>
      <feBlend in="SourceGraphic" in2="effect1_dropShadow_43_11" result="shape"/>
    </filter>
    <filter id="n" width="64.228" height="118.573" x="19.477" y="178.591" color-interpolation-filters="sRGB" filterUnits="userSpaceOnUse">
      <feFlood flood-opacity="0" result="BackgroundImageFix"/>
      <feColorMatrix in="SourceAlpha" result="hardAlpha" values="0 0 0 0 0 0 0 0 0 0 0 0 0 0 0 0 0 0 127 0"/>
      <feOffset/>
      <feGaussianBlur stdDeviation="5"/>
      <feColorMatrix values="0 0 0 0 0 0 0 0 0 0 0 0 0 0 0 0 0 0 0.44 0"/>
      <feBlend in2="BackgroundImageFix" result="effect1_dropShadow_43_11"/>
      <feBlend in="SourceGraphic" in2="effect1_dropShadow_43_11" result="shape"/>
    </filter>
    <filter id="o" width="63.972" height="118.895" x="278.571" y="69.983" color-interpolation-filters="sRGB" filterUnits="userSpaceOnUse">
      <feFlood flood-opacity="0" result="BackgroundImageFix"/>
      <feColorMatrix in="SourceAlpha" result="hardAlpha" values="0 0 0 0 0 0 0 0 0 0 0 0 0 0 0 0 0 0 127 0"/>
      <feOffset/>
      <feGaussianBlur stdDeviation="5"/>
      <feColorMatrix values="0 0 0 0 0 0 0 0 0 0 0 0 0 0 0 0 0 0 0.44 0"/>
      <feBlend in2="BackgroundImageFix" result="effect1_dropShadow_43_11"/>
      <feBlend in="SourceGraphic" in2="effect1_dropShadow_43_11" result="shape"/>
    </filter>
    <filter id="p" width="118.981" height="64.226" x="175.841" y="21.973" color-interpolation-filters="sRGB" filterUnits="userSpaceOnUse">
      <feFlood flood-opacity="0" result="BackgroundImageFix"/>
      <feColorMatrix in="SourceAlpha" result="hardAlpha" values="0 0 0 0 0 0 0 0 0 0 0 0 0 0 0 0 0 0 127 0"/>
      <feOffset/>
      <feGaussianBlur stdDeviation="5"/>
      <feColorMatrix values="0 0 0 0 0 0 0 0 0 0 0 0 0 0 0 0 0 0 0.44 0"/>
      <feBlend in2="BackgroundImageFix" result="effect1_dropShadow_43_11"/>
      <feBlend in="SourceGraphic" in2="effect1_dropShadow_43_11" result="shape"/>
    </filter>
    <filter id="q" width="118.953" height="64.245" x="67.151" y="21.982" color-interpolation-filters="sRGB" filterUnits="userSpaceOnUse">
      <feFlood flood-opacity="0" result="BackgroundImageFix"/>
      <feColorMatrix in="SourceAlpha" result="hardAlpha" values="0 0 0 0 0 0 0 0 0 0 0 0 0 0 0 0 0 0 127 0"/>
      <feOffset/>
      <feGaussianBlur stdDeviation="5"/>
      <feColorMatrix values="0 0 0 0 0 0 0 0 0 0 0 0 0 0 0 0 0 0 0.44 0"/>
      <feBlend in2="BackgroundImageFix" result="effect1_dropShadow_43_11"/>
      <feBlend in="SourceGraphic" in2="effect1_dropShadow_43_11" result="shape"/>
    </filter>
    <filter id="r" width="63.953" height="118.876" x="19.439" y="70.002" color-interpolation-filters="sRGB" filterUnits="userSpaceOnUse">
      <feFlood flood-opacity="0" result="BackgroundImageFix"/>
      <feColorMatrix in="SourceAlpha" result="hardAlpha" values="0 0 0 0 0 0 0 0 0 0 0 0 0 0 0 0 0 0 127 0"/>
      <feOffset/>
      <feGaussianBlur stdDeviation="5"/>
      <feColorMatrix values="0 0 0 0 0 0 0 0 0 0 0 0 0 0 0 0 0 0 0.44 0"/>
      <feBlend in2="BackgroundImageFix" result="effect1_dropShadow_43_11"/>
      <feBlend in="SourceGraphic" in2="effect1_dropShadow_43_11" result="shape"/>
    </filter>
    <filter id="s" width="39.295" height="58.355" x="317.94" y="178.61" color-interpolation-filters="sRGB" filterUnits="userSpaceOnUse">
      <feFlood flood-opacity="0" result="BackgroundImageFix"/>
      <feColorMatrix in="SourceAlpha" result="hardAlpha" values="0 0 0 0 0 0 0 0 0 0 0 0 0 0 0 0 0 0 127 0"/>
      <feOffset/>
      <feGaussianBlur stdDeviation="5"/>
      <feColorMatrix values="0 0 0 0 0 0 0 0 0 0 0 0 0 0 0 0 0 0 0.44 0"/>
      <feBlend in2="BackgroundImageFix" result="effect1_dropShadow_43_11"/>
      <feBlend in="SourceGraphic" in2="effect1_dropShadow_43_11" result="shape"/>
    </filter>
    <filter id="t" width="58.343" height="38.76" x="341.041" y="220.683" color-interpolation-filters="sRGB" filterUnits="userSpaceOnUse">
      <feFlood flood-opacity="0" result="BackgroundImageFix"/>
      <feColorMatrix in="SourceAlpha" result="hardAlpha" values="0 0 0 0 0 0 0 0 0 0 0 0 0 0 0 0 0 0 127 0"/>
      <feOffset/>
      <feGaussianBlur stdDeviation="5"/>
      <feColorMatrix values="0 0 0 0 0 0 0 0 0 0 0 0 0 0 0 0 0 0 0.44 0"/>
      <feBlend in2="BackgroundImageFix" result="effect1_dropShadow_43_11"/>
      <feBlend in="SourceGraphic" in2="effect1_dropShadow_43_11" result="shape"/>
    </filter>
    <filter id="u" width="58.021" height="39.093" x="389.102" y="107.048" color-interpolation-filters="sRGB" filterUnits="userSpaceOnUse">
      <feFlood flood-opacity="0" result="BackgroundImageFix"/>
      <feColorMatrix in="SourceAlpha" result="hardAlpha" values="0 0 0 0 0 0 0 0 0 0 0 0 0 0 0 0 0 0 127 0"/>
      <feOffset/>
      <feGaussianBlur stdDeviation="5"/>
      <feColorMatrix values="0 0 0 0 0 0 0 0 0 0 0 0 0 0 0 0 0 0 0.44 0"/>
      <feBlend in2="BackgroundImageFix" result="effect1_dropShadow_43_11"/>
      <feBlend in="SourceGraphic" in2="effect1_dropShadow_43_11" result="shape"/>
    </filter>
    <filter id="v" width="38.773" height="58.346" x="431.262" y="130.533" color-interpolation-filters="sRGB" filterUnits="userSpaceOnUse">
      <feFlood flood-opacity="0" result="BackgroundImageFix"/>
      <feColorMatrix in="SourceAlpha" result="hardAlpha" values="0 0 0 0 0 0 0 0 0 0 0 0 0 0 0 0 0 0 127 0"/>
      <feOffset/>
      <feGaussianBlur stdDeviation="5"/>
      <feColorMatrix values="0 0 0 0 0 0 0 0 0 0 0 0 0 0 0 0 0 0 0.44 0"/>
      <feBlend in2="BackgroundImageFix" result="effect1_dropShadow_43_11"/>
      <feBlend in="SourceGraphic" in2="effect1_dropShadow_43_11" result="shape"/>
    </filter>
    <filter id="w" width="68.59" height="68.549" x="2.535" y="210.843" color-interpolation-filters="sRGB" filterUnits="userSpaceOnUse">
      <feFlood flood-opacity="0" result="BackgroundImageFix"/>
      <feColorMatrix in="SourceAlpha" result="hardAlpha" values="0 0 0 0 0 0 0 0 0 0 0 0 0 0 0 0 0 0 127 0"/>
      <feOffset dx="2" dy="2"/>
      <feGaussianBlur stdDeviation="2"/>
      <feColorMatrix values="0 0 0 0 0.121569 0 0 0 0 0.247059 0 0 0 0 0.427451 0 0 0 0.35 0"/>
      <feBlend in2="BackgroundImageFix" result="effect1_dropShadow_43_11"/>
      <feBlend in="SourceGraphic" in2="effect1_dropShadow_43_11" result="shape"/>
    </filter>
    <filter id="x" width="62.936" height="62.902" x="3.369" y="211.667" color-interpolation-filters="sRGB" filterUnits="userSpaceOnUse">
      <feFlood flood-opacity="0" result="BackgroundImageFix"/>
      <feColorMatrix in="SourceAlpha" result="hardAlpha" values="0 0 0 0 0 0 0 0 0 0 0 0 0 0 0 0 0 0 127 0"/>
      <feOffset/>
      <feGaussianBlur stdDeviation="3"/>
      <feColorMatrix values="0 0 0 0 0 0 0 0 0 0 0 0 0 0 0 0 0 0 0.49 0"/>
      <feBlend in2="BackgroundImageFix" result="effect1_dropShadow_43_11"/>
      <feBlend in="SourceGraphic" in2="effect1_dropShadow_43_11" result="shape"/>
    </filter>
    <filter id="y" width="56.721" height="56.691" x="6.47" y="214.772" color-interpolation-filters="sRGB" filterUnits="userSpaceOnUse">
      <feFlood flood-opacity="0" result="BackgroundImageFix"/>
      <feColorMatrix in="SourceAlpha" result="hardAlpha" values="0 0 0 0 0 0 0 0 0 0 0 0 0 0 0 0 0 0 127 0"/>
      <feOffset/>
      <feGaussianBlur stdDeviation="3"/>
      <feColorMatrix values="0 0 0 0 0 0 0 0 0 0 0 0 0 0 0 0 0 0 0.49 0"/>
      <feBlend in2="BackgroundImageFix" result="effect1_dropShadow_43_11"/>
      <feBlend in="SourceGraphic" in2="effect1_dropShadow_43_11" result="shape"/>
    </filter>
    <filter id="A" width="68.59" height="68.549" x="295.635" y="90.313" color-interpolation-filters="sRGB" filterUnits="userSpaceOnUse">
      <feFlood flood-opacity="0" result="BackgroundImageFix"/>
      <feColorMatrix in="SourceAlpha" result="hardAlpha" values="0 0 0 0 0 0 0 0 0 0 0 0 0 0 0 0 0 0 127 0"/>
      <feOffset dx="2" dy="2"/>
      <feGaussianBlur stdDeviation="2"/>
      <feColorMatrix values="0 0 0 0 0.121569 0 0 0 0 0.247059 0 0 0 0 0.427451 0 0 0 0.35 0"/>
      <feBlend in2="BackgroundImageFix" result="effect1_dropShadow_43_11"/>
      <feBlend in="SourceGraphic" in2="effect1_dropShadow_43_11" result="shape"/>
    </filter>
    <filter id="B" width="62.928" height="62.894" x="296.466" y="91.141" color-interpolation-filters="sRGB" filterUnits="userSpaceOnUse">
      <feFlood flood-opacity="0" result="BackgroundImageFix"/>
      <feColorMatrix in="SourceAlpha" result="hardAlpha" values="0 0 0 0 0 0 0 0 0 0 0 0 0 0 0 0 0 0 127 0"/>
      <feOffset/>
      <feGaussianBlur stdDeviation="3"/>
      <feColorMatrix values="0 0 0 0 0 0 0 0 0 0 0 0 0 0 0 0 0 0 0.49 0"/>
      <feBlend in2="BackgroundImageFix" result="effect1_dropShadow_43_11"/>
      <feBlend in="SourceGraphic" in2="effect1_dropShadow_43_11" result="shape"/>
    </filter>
    <filter id="C" width="56.721" height="56.691" x="299.574" y="94.24" color-interpolation-filters="sRGB" filterUnits="userSpaceOnUse">
      <feFlood flood-opacity="0" result="BackgroundImageFix"/>
      <feColorMatrix in="SourceAlpha" result="hardAlpha" values="0 0 0 0 0 0 0 0 0 0 0 0 0 0 0 0 0 0 127 0"/>
      <feOffset/>
      <feGaussianBlur stdDeviation="3"/>
      <feColorMatrix values="0 0 0 0 0 0 0 0 0 0 0 0 0 0 0 0 0 0 0.49 0"/>
      <feBlend in2="BackgroundImageFix" result="effect1_dropShadow_43_11"/>
      <feBlend in="SourceGraphic" in2="effect1_dropShadow_43_11" result="shape"/>
    </filter>
    <filter id="E" width="68.59" height="68.549" x="86.198" y="2.733" color-interpolation-filters="sRGB" filterUnits="userSpaceOnUse">
      <feFlood flood-opacity="0" result="BackgroundImageFix"/>
      <feColorMatrix in="SourceAlpha" result="hardAlpha" values="0 0 0 0 0 0 0 0 0 0 0 0 0 0 0 0 0 0 127 0"/>
      <feOffset dx="2" dy="2"/>
      <feGaussianBlur stdDeviation="2"/>
      <feColorMatrix values="0 0 0 0 0.121569 0 0 0 0 0.247059 0 0 0 0 0.427451 0 0 0 0.35 0"/>
      <feBlend in2="BackgroundImageFix" result="effect1_dropShadow_43_11"/>
      <feBlend in="SourceGraphic" in2="effect1_dropShadow_43_11" result="shape"/>
    </filter>
    <filter id="F" width="62.935" height="62.901" x="87.025" y="3.556" color-interpolation-filters="sRGB" filterUnits="userSpaceOnUse">
      <feFlood flood-opacity="0" result="BackgroundImageFix"/>
      <feColorMatrix in="SourceAlpha" result="hardAlpha" values="0 0 0 0 0 0 0 0 0 0 0 0 0 0 0 0 0 0 127 0"/>
      <feOffset/>
      <feGaussianBlur stdDeviation="3"/>
      <feColorMatrix values="0 0 0 0 0 0 0 0 0 0 0 0 0 0 0 0 0 0 0.49 0"/>
      <feBlend in2="BackgroundImageFix" result="effect1_dropShadow_43_11"/>
      <feBlend in="SourceGraphic" in2="effect1_dropShadow_43_11" result="shape"/>
    </filter>
    <filter id="G" width="56.721" height="56.691" x="90.138" y="6.664" color-interpolation-filters="sRGB" filterUnits="userSpaceOnUse">
      <feFlood flood-opacity="0" result="BackgroundImageFix"/>
      <feColorMatrix in="SourceAlpha" result="hardAlpha" values="0 0 0 0 0 0 0 0 0 0 0 0 0 0 0 0 0 0 127 0"/>
      <feOffset/>
      <feGaussianBlur stdDeviation="3"/>
      <feColorMatrix values="0 0 0 0 0 0 0 0 0 0 0 0 0 0 0 0 0 0 0.49 0"/>
      <feBlend in2="BackgroundImageFix" result="effect1_dropShadow_43_11"/>
      <feBlend in="SourceGraphic" in2="effect1_dropShadow_43_11" result="shape"/>
    </filter>
    <filter id="I" width="68.59" height="68.549" x="4.366" y="91.42" color-interpolation-filters="sRGB" filterUnits="userSpaceOnUse">
      <feFlood flood-opacity="0" result="BackgroundImageFix"/>
      <feColorMatrix in="SourceAlpha" result="hardAlpha" values="0 0 0 0 0 0 0 0 0 0 0 0 0 0 0 0 0 0 127 0"/>
      <feOffset dx="2" dy="2"/>
      <feGaussianBlur stdDeviation="2"/>
      <feColorMatrix values="0 0 0 0 0.121569 0 0 0 0 0.247059 0 0 0 0 0.427451 0 0 0 0.35 0"/>
      <feBlend in2="BackgroundImageFix" result="effect1_dropShadow_43_11"/>
      <feBlend in="SourceGraphic" in2="effect1_dropShadow_43_11" result="shape"/>
    </filter>
    <filter id="J" width="62.928" height="62.894" x="5.201" y="92.248" color-interpolation-filters="sRGB" filterUnits="userSpaceOnUse">
      <feFlood flood-opacity="0" result="BackgroundImageFix"/>
      <feColorMatrix in="SourceAlpha" result="hardAlpha" values="0 0 0 0 0 0 0 0 0 0 0 0 0 0 0 0 0 0 127 0"/>
      <feOffset/>
      <feGaussianBlur stdDeviation="3"/>
      <feColorMatrix values="0 0 0 0 0 0 0 0 0 0 0 0 0 0 0 0 0 0 0.49 0"/>
      <feBlend in2="BackgroundImageFix" result="effect1_dropShadow_43_11"/>
      <feBlend in="SourceGraphic" in2="effect1_dropShadow_43_11" result="shape"/>
    </filter>
    <filter id="K" width="56.721" height="56.691" x="8.318" y="95.361" color-interpolation-filters="sRGB" filterUnits="userSpaceOnUse">
      <feFlood flood-opacity="0" result="BackgroundImageFix"/>
      <feColorMatrix in="SourceAlpha" result="hardAlpha" values="0 0 0 0 0 0 0 0 0 0 0 0 0 0 0 0 0 0 127 0"/>
      <feOffset/>
      <feGaussianBlur stdDeviation="3"/>
      <feColorMatrix values="0 0 0 0 0 0 0 0 0 0 0 0 0 0 0 0 0 0 0.49 0"/>
      <feBlend in2="BackgroundImageFix" result="effect1_dropShadow_43_11"/>
      <feBlend in="SourceGraphic" in2="effect1_dropShadow_43_11" result="shape"/>
    </filter>
    <filter id="M" width="68.59" height="68.549" x="213.553" y="211.208" color-interpolation-filters="sRGB" filterUnits="userSpaceOnUse">
      <feFlood flood-opacity="0" result="BackgroundImageFix"/>
      <feColorMatrix in="SourceAlpha" result="hardAlpha" values="0 0 0 0 0 0 0 0 0 0 0 0 0 0 0 0 0 0 127 0"/>
      <feOffset dx="2" dy="2"/>
      <feGaussianBlur stdDeviation="2"/>
      <feColorMatrix values="0 0 0 0 0.121569 0 0 0 0 0.247059 0 0 0 0 0.427451 0 0 0 0.35 0"/>
      <feBlend in2="BackgroundImageFix" result="effect1_dropShadow_43_11"/>
      <feBlend in="SourceGraphic" in2="effect1_dropShadow_43_11" result="shape"/>
    </filter>
    <filter id="N" width="62.928" height="62.894" x="214.387" y="212.036" color-interpolation-filters="sRGB" filterUnits="userSpaceOnUse">
      <feFlood flood-opacity="0" result="BackgroundImageFix"/>
      <feColorMatrix in="SourceAlpha" result="hardAlpha" values="0 0 0 0 0 0 0 0 0 0 0 0 0 0 0 0 0 0 127 0"/>
      <feOffset/>
      <feGaussianBlur stdDeviation="3"/>
      <feColorMatrix values="0 0 0 0 0 0 0 0 0 0 0 0 0 0 0 0 0 0 0.49 0"/>
      <feBlend in2="BackgroundImageFix" result="effect1_dropShadow_43_11"/>
      <feBlend in="SourceGraphic" in2="effect1_dropShadow_43_11" result="shape"/>
    </filter>
    <filter id="O" width="56.721" height="56.691" x="217.504" y="215.148" color-interpolation-filters="sRGB" filterUnits="userSpaceOnUse">
      <feFlood flood-opacity="0" result="BackgroundImageFix"/>
      <feColorMatrix in="SourceAlpha" result="hardAlpha" values="0 0 0 0 0 0 0 0 0 0 0 0 0 0 0 0 0 0 127 0"/>
      <feOffset/>
      <feGaussianBlur stdDeviation="3"/>
      <feColorMatrix values="0 0 0 0 0 0 0 0 0 0 0 0 0 0 0 0 0 0 0.49 0"/>
      <feBlend in2="BackgroundImageFix" result="effect1_dropShadow_43_11"/>
      <feBlend in="SourceGraphic" in2="effect1_dropShadow_43_11" result="shape"/>
    </filter>
    <filter id="Q" width="68.55" height="68.591" x="424.1" y="4.67" color-interpolation-filters="sRGB" filterUnits="userSpaceOnUse">
      <feFlood flood-opacity="0" result="BackgroundImageFix"/>
      <feColorMatrix in="SourceAlpha" result="hardAlpha" values="0 0 0 0 0 0 0 0 0 0 0 0 0 0 0 0 0 0 127 0"/>
      <feOffset dx="2" dy="2"/>
      <feGaussianBlur stdDeviation="2"/>
      <feColorMatrix values="0 0 0 0 0.121569 0 0 0 0 0.247059 0 0 0 0 0.427451 0 0 0 0.35 0"/>
      <feBlend in2="BackgroundImageFix" result="effect1_dropShadow_43_11"/>
      <feBlend in="SourceGraphic" in2="effect1_dropShadow_43_11" result="shape"/>
    </filter>
    <filter id="R" width="62.894" height="62.929" x="424.927" y="5.497" color-interpolation-filters="sRGB" filterUnits="userSpaceOnUse">
      <feFlood flood-opacity="0" result="BackgroundImageFix"/>
      <feColorMatrix in="SourceAlpha" result="hardAlpha" values="0 0 0 0 0 0 0 0 0 0 0 0 0 0 0 0 0 0 127 0"/>
      <feOffset/>
      <feGaussianBlur stdDeviation="3"/>
      <feColorMatrix values="0 0 0 0 0 0 0 0 0 0 0 0 0 0 0 0 0 0 0.49 0"/>
      <feBlend in2="BackgroundImageFix" result="effect1_dropShadow_43_11"/>
      <feBlend in="SourceGraphic" in2="effect1_dropShadow_43_11" result="shape"/>
    </filter>
    <filter id="S" width="56.692" height="56.722" x="428.041" y="8.587" color-interpolation-filters="sRGB" filterUnits="userSpaceOnUse">
      <feFlood flood-opacity="0" result="BackgroundImageFix"/>
      <feColorMatrix in="SourceAlpha" result="hardAlpha" values="0 0 0 0 0 0 0 0 0 0 0 0 0 0 0 0 0 0 127 0"/>
      <feOffset/>
      <feGaussianBlur stdDeviation="3"/>
      <feColorMatrix values="0 0 0 0 0 0 0 0 0 0 0 0 0 0 0 0 0 0 0.49 0"/>
      <feBlend in2="BackgroundImageFix" result="effect1_dropShadow_43_11"/>
      <feBlend in="SourceGraphic" in2="effect1_dropShadow_43_11" result="shape"/>
    </filter>
    <filter id="U" width="68.59" height="68.549" x="508.451" y="90.313" color-interpolation-filters="sRGB" filterUnits="userSpaceOnUse">
      <feFlood flood-opacity="0" result="BackgroundImageFix"/>
      <feColorMatrix in="SourceAlpha" result="hardAlpha" values="0 0 0 0 0 0 0 0 0 0 0 0 0 0 0 0 0 0 127 0"/>
      <feOffset dx="2" dy="2"/>
      <feGaussianBlur stdDeviation="2"/>
      <feColorMatrix values="0 0 0 0 0.121569 0 0 0 0 0.247059 0 0 0 0 0.427451 0 0 0 0.35 0"/>
      <feBlend in2="BackgroundImageFix" result="effect1_dropShadow_43_11"/>
      <feBlend in="SourceGraphic" in2="effect1_dropShadow_43_11" result="shape"/>
    </filter>
    <filter id="V" width="62.928" height="62.894" x="509.282" y="91.141" color-interpolation-filters="sRGB" filterUnits="userSpaceOnUse">
      <feFlood flood-opacity="0" result="BackgroundImageFix"/>
      <feColorMatrix in="SourceAlpha" result="hardAlpha" values="0 0 0 0 0 0 0 0 0 0 0 0 0 0 0 0 0 0 127 0"/>
      <feOffset/>
      <feGaussianBlur stdDeviation="3"/>
      <feColorMatrix values="0 0 0 0 0 0 0 0 0 0 0 0 0 0 0 0 0 0 0.49 0"/>
      <feBlend in2="BackgroundImageFix" result="effect1_dropShadow_43_11"/>
      <feBlend in="SourceGraphic" in2="effect1_dropShadow_43_11" result="shape"/>
    </filter>
    <filter id="W" width="56.721" height="56.691" x="512.379" y="94.244" color-interpolation-filters="sRGB" filterUnits="userSpaceOnUse">
      <feFlood flood-opacity="0" result="BackgroundImageFix"/>
      <feColorMatrix in="SourceAlpha" result="hardAlpha" values="0 0 0 0 0 0 0 0 0 0 0 0 0 0 0 0 0 0 127 0"/>
      <feOffset/>
      <feGaussianBlur stdDeviation="3"/>
      <feColorMatrix values="0 0 0 0 0 0 0 0 0 0 0 0 0 0 0 0 0 0 0.49 0"/>
      <feBlend in2="BackgroundImageFix" result="effect1_dropShadow_43_11"/>
      <feBlend in="SourceGraphic" in2="effect1_dropShadow_43_11" result="shape"/>
    </filter>
    <radialGradient id="z" cx="0" cy="0" r="1" gradientTransform="matrix(22.3607 0 0 22.3456 34.83 243.117)" gradientUnits="userSpaceOnUse">
      <stop offset=".79" stop-color="#fff"/>
      <stop offset="1" stop-color="#D4E5FC"/>
    </radialGradient>
    <radialGradient id="D" cx="0" cy="0" r="1" gradientTransform="matrix(22.3607 0 0 22.3456 327.929 122.587)" gradientUnits="userSpaceOnUse">
      <stop offset=".79" stop-color="#fff"/>
      <stop offset="1" stop-color="#D4E5FC"/>
    </radialGradient>
    <radialGradient id="H" cx="0" cy="0" r="1" gradientTransform="matrix(22.3607 0 0 22.3456 118.504 35.006)" gradientUnits="userSpaceOnUse">
      <stop offset=".79" stop-color="#fff"/>
      <stop offset="1" stop-color="#D4E5FC"/>
    </radialGradient>
    <radialGradient id="L" cx="0" cy="0" r="1" gradientTransform="matrix(22.3607 0 0 22.3456 36.678 123.684)" gradientUnits="userSpaceOnUse">
      <stop offset=".79" stop-color="#fff"/>
      <stop offset="1" stop-color="#D4E5FC"/>
    </radialGradient>
    <radialGradient id="P" cx="0" cy="0" r="1" gradientTransform="matrix(22.3607 0 0 22.3456 245.865 243.471)" gradientUnits="userSpaceOnUse">
      <stop offset=".79" stop-color="#fff"/>
      <stop offset="1" stop-color="#D4E5FC"/>
    </radialGradient>
    <radialGradient id="T" cx="0" cy="0" r="1" gradientTransform="rotate(-88.747 247.065 -214.753) scale(22.3607 22.3456)" gradientUnits="userSpaceOnUse">
      <stop offset=".79" stop-color="#fff"/>
      <stop offset="1" stop-color="#D4E5FC"/>
    </radialGradient>
    <radialGradient id="X" cx="0" cy="0" r="1" gradientTransform="matrix(22.3607 0 0 22.3456 540.73 122.592)" gradientUnits="userSpaceOnUse">
      <stop offset=".79" stop-color="#fff"/>
      <stop offset="1" stop-color="#D4E5FC"/>
    </radialGradient>
    <clipPath id="a">
      <path fill="#fff" d="M.653.171h578v368h-578z"/>
    </clipPath>
    <clipPath id="b">
      <path fill="#fff" d="M393.653 184.171h166v168h-166z"/>
    </clipPath>
  </defs>
</svg>
