<svg xmlns="http://www.w3.org/2000/svg" width="26" height="27" fill="none" viewBox="0 0 26 27">
  <g clip-path="url(#a)">
    <path fill="#1E88E5" d="M23.91 20.427c-5.945 7.755-13.98 5.735-17.116 3.975C1.96 21.731-1.437 15.54.588 9.285A13.658 13.658 0 0 1 3.2 4.593c1.11.065 2.352.065 3.92 0 9.145-.652 11.758 7.168 11.105 9.123-.326.977-1.502 1.303-2.613 1.368.13-.13.261-.326.392-.652.588-.977.653-2.932-1.11-4.105-1.699-1.108-3.528-.39-4.508.847-.98 1.238-.588 3.128-.261 3.975 1.437 3.584 4.115 4.496 5.879 5.083 1.764.587 4.508.456 5.945-.13 1.437-.587 1.829-.913 2.09-.652.327.26.13.587-.13.977Z"/>
    <path fill="#0D47A1" d="M23.91 20.427c-2.287 2.933-4.835 4.497-7.317 5.148h-.065c-1.437.261-2.613.066-3.855-.195-2.025-.391-4.834-2.607-5.487-6.647-.588-3.453 1.045-6.386 3.658-8.145-.196.13-.326.326-.457.521-.98 1.238-.588 3.128-.261 3.975 1.437 3.584 4.115 4.496 5.879 5.083 1.764.586 4.508.456 5.945-.13 1.437-.587 1.829-.913 2.09-.652.327.326.13.651-.13 1.042Z"/>
    <path fill="#00E5FF" d="M14.895.162v.521c0 2.476-1.176 4.627-2.94 6.06-.653-.326-1.437-.586-2.417-.782-2.679-.521-6.925.717-8.689 3.78-.522.977-.718 2.02-.849 2.932 0-1.108.196-2.28.588-3.388C2.744 2.573 8.95-.62 14.895.162Z"/>
    <path fill="#00E676" d="M24.367 15.54c-1.83 1.825-4.116 1.89-5.684 1.76-1.567-.066-2.351-.522-3.07-.978-.718-.456-.326-.912-.261-.977.065-.065.261-.26.653-.978.196-.326.327-.782.327-1.238 3.005-2.215 5.226-5.539 6.01-9.318 1.894 1.89 2.809 4.04 3.135 4.952.588 1.63 1.046 4.627-1.11 6.777Z"/>
    <path fill="#1DE9B6" d="M22.342 3.811c-.784 3.845-2.94 7.103-6.01 9.383 0-.26 0-.586-.066-.847-.196-.977-.653-2.15-1.437-3.128-.784-.912-1.633-1.759-2.874-2.41 1.764-1.434 2.94-3.585 2.94-6.06V.226c.26.065.522.065.784.13 3.004.522 5.16 1.89 6.663 3.454Z"/>
  </g>
  <defs>
    <clipPath id="a">
      <path fill="#fff" d="M0 .031h26v26H0z"/>
    </clipPath>
  </defs>
</svg>
