<svg xmlns="http://www.w3.org/2000/svg" width="20" height="26" fill="currentColor" viewBox="0 0 20 26">
  <path d="M15.794 25.996c.123-.08.268-.142.37-.243.238-.237.296-.52.159-.818-.138-.298-.391-.46-.746-.46h-4.38v-3.402c.477-.08.962-.135 1.426-.256 3.917-1.028 6.292-3.422 7.11-7.141.109-.467.109-.96.13-1.44.022-.46-.325-.792-.789-.798-.478-.007-.818.31-.832.784-.087 2.664-1.311 4.76-3.715 6.208-4.511 2.698-10.666.31-11.817-4.578-.123-.535-.167-1.082-.217-1.63-.044-.467-.362-.791-.84-.784a.774.774 0 0 0-.79.797c-.036 4.078 3.15 7.77 7.451 8.629.399.081.797.128 1.217.196v3.408H5.258c-.492 0-.817.223-.912.602-.086.365.109.676.55.879.015.007.022.02.037.034 3.62.013 7.24.013 10.861.013Z"/>
  <path d="M4.34 8.942v3.578c.006 2.677 2.12 4.929 4.966 5.26 1.579.183 3.114.061 4.475-.804 1.68-1.062 2.585-2.543 2.6-4.45.029-2.38.014-4.753.007-7.127 0-2.63-1.977-4.869-4.757-5.288-1.934-.29-3.78-.054-5.315 1.224-1.274 1.062-1.948 2.394-1.977 3.99-.014 1.203 0 2.414 0 3.617Zm1.643 2.496V9.713c.76 0 1.499.007 2.237 0 .384-.006.717-.277.775-.629a.74.74 0 0 0-.507-.831 1.285 1.285 0 0 0-.398-.054c-.702-.007-1.405 0-2.114 0V6.474h1.346a.777.777 0 0 0 .696-.372c.325-.507-.051-1.136-.688-1.15-.435-.006-.876 0-1.318 0 0-.08-.007-.12 0-.162.297-1.426 1.144-2.434 2.592-2.982.666-.257 1.376-.277 2.078-.25 1.723.068 2.962.825 3.693 2.286.167.338.246.71.37 1.061-.073.034-.095.048-.11.048-.39 0-.774.007-1.165.007-.536 0-.89.304-.89.75 0 .453.354.764.883.764h1.274V8.2H12.55c-.325 0-.579.121-.738.392-.304.507.072 1.116.695 1.122.738.007 1.477 0 2.223 0v1.698c-.022.013-.03.02-.036.02-.435 0-.87.007-1.304.007a.786.786 0 0 0-.695.365c-.326.507.05 1.136.68 1.15.443.006.877 0 1.319 0 .007.06.007.087.007.114 0 .027 0 .054-.007.075-.319 1.426-1.202 2.407-2.65 2.934-.688.25-1.42.264-2.144.217-1.672-.095-2.874-.866-3.591-2.28-.16-.317-.232-.682-.34-1.013.072-.027.086-.041.108-.041.398 0 .796 0 1.195-.007.507-.007.861-.318.861-.757 0-.44-.354-.757-.854-.764-.42.007-.847.007-1.296.007Z"/>
</svg>
