<svg width="587" height="768" viewBox="0 0 587 768" fill="none" xmlns="http://www.w3.org/2000/svg">
<path d="M290.792 0C331.531 0 354.377 6.25691 391.94 17.5911C464.398 39.8982 525.931 97.1652 557.226 165.724C569.763 192.749 578.337 221.441 582.681 250.914C584.76 264.932 586.455 279.187 586.488 293.379C586.575 329.582 576.744 367.748 564.135 401.506C557.701 418.899 549.454 435.567 539.531 451.234C517.64 485.123 484.919 515.595 451.288 537.634C443.11 542.993 434.528 547.648 426.035 552.478C421.855 554.856 417.869 557.714 413.634 559.96C412.218 569.322 412.509 578.58 412.445 588.014C412.384 597.103 411.517 606.769 413.83 615.628C446.005 619.407 484.093 612.278 506.933 641.197C522.002 660.276 524.279 683.477 524.516 706.845C524.625 717.523 524.341 728.137 523.046 738.745C521.813 748.848 519.219 758.542 515.48 768H70.443C65.716 755.365 61.996 742.096 61.352 728.579C59.871 697.457 60.603 659.187 82.911 634.913C103.391 612.629 143.187 617.572 170.686 616.455C171.891 614.555 172.626 613.009 172.963 610.763C174.018 603.733 173.207 596.111 173.263 588.996C173.34 579.429 174.155 569.726 173.29 560.185C167.35 554.538 159.062 552.394 151.971 548.539C84.553 511.255 34.427 449.04 12.339 375.234C-9.85039 298.694 -0.562378 216.461 38.141 146.799C68.322 91.6478 128.301 39.2079 188.059 19.0204C221.229 7.8151 255.782 0 290.792 0ZM291.679 449.675C302.925 449.511 314.093 448.883 325.158 446.726C353.839 441.134 383.052 426.094 403.435 405.072C410.141 398.156 416.653 391.068 422.256 383.212C442.297 355.113 451.305 319.945 450.728 285.693C450.552 275.202 449.84 264.803 447.614 254.524C443.373 234.936 432.357 212.37 419.626 196.855C413.681 189.608 406.902 182.956 400.454 176.16C396.23 171.708 391.63 167.215 388.499 161.899C386.474 158.462 385.279 154.937 384.671 151.004C383.33 142.336 383.638 133.204 383.58 124.454C383.468 113.907 383.467 103.359 383.579 92.812C383.72 85.836 384.285 78.7942 383.733 71.8279C383.487 68.714 383.174 64.3783 381.104 61.9098C379.309 59.7682 375.258 57.9749 372.746 56.8588C353.061 48.1118 316.845 42.3599 295.493 42.7624C294.367 42.7735 293.243 42.8426 292.124 42.9692C284.064 43.3749 276.083 43.9491 268.064 44.9099C253.744 46.6791 239.536 49.2641 225.51 52.6524C220.352 53.853 214.871 54.8303 209.965 56.8442C207.384 57.9036 205.189 59.1781 203.29 61.2413C203.068 61.4839 202.849 61.7294 202.634 61.9777C201.141 70.5966 202.976 79.7347 203.433 88.3873C203.95 98.1719 203.565 108.152 203.582 117.96C203.598 126.578 204.115 135.339 203.364 143.929C203.008 148.001 202.335 152.278 200.991 156.151C197.862 165.167 189.736 171.284 183.336 177.947C178.172 183.323 173.006 188.835 168.531 194.806C156.191 211.271 145.818 230.824 140.259 250.688C127.732 295.452 137.424 346.106 164.091 383.878C186.783 416.019 221.523 440.385 260.636 447.041C270.884 448.847 281.273 449.728 291.679 449.675ZM365.874 616.435L365.954 615.887C366.822 609.752 366.389 603.195 366.412 596.993C366.45 586.882 366.882 576.79 367.132 566.684C367.417 555.211 365.897 541.767 369.992 530.897C370.912 528.455 372.928 526.656 374.956 525.105C382.443 519.376 392.199 516.673 400.741 512.907C411.112 508.401 421.16 503.188 430.816 497.303C444.114 489.066 456.216 478.128 467.169 467.018C474.371 459.714 481.596 452.263 487.946 444.192C514.801 409.51 532.31 368.519 538.799 325.137C544.538 284.608 538.886 243.374 524.966 205.034C513.577 176.225 498.983 149.265 477.469 126.718C470.906 119.841 463.582 113.439 456.502 107.08C450.101 101.332 440.954 92.3526 433.328 88.8629C431.85 88.1863 430.712 87.8441 429.112 88.1975C428.132 88.8784 427.744 89.5093 427.571 90.6709C426.463 98.1243 426.974 127.697 428.899 134.739C429.984 138.709 432.343 142.462 434.853 145.682C439.241 151.313 444.69 156.125 449.622 161.273C453.655 165.483 457.311 170.098 460.717 174.828C467.795 184.657 473.199 195.647 478.089 206.69C494.868 244.578 498.765 278.289 493.934 319.312C492.356 333.856 489.161 348.18 484.409 362.016C471.938 397.443 446.972 429.914 417.606 453.073C376.329 485.625 318.47 497.754 266.869 491.64C248.44 489.456 229.604 485.537 212.302 478.686C181.374 466.44 151.886 442.419 131.399 416.392C95.384 370.638 86.06 316.882 92.862 260.064C97.222 224.531 111.725 191.006 134.636 163.498C139.933 157.081 145.903 151.2 151.327 144.87C152.519 143.478 154.058 142.102 154.896 140.46C156.125 138.049 156.573 134.864 156.935 132.203C157.852 125.471 160.476 87.9409 158.015 83.689L157.342 83.5818C148.996 88.6546 141.523 96.0042 134.103 102.372C124.323 110.766 114.622 119.376 106.012 128.993C80.475 157.52 61.858 195.678 52.837 232.741C36.939 295.561 46.892 362.132 80.468 417.555C101.863 452.649 130.965 483.42 166.355 504.627C176.171 510.509 186.994 515.002 197.446 519.639C201.482 521.43 205.716 523.003 209.595 525.115C211.57 526.191 213.696 527.454 215.035 529.298C221.02 537.539 219.694 574.573 219.239 585.472C218.895 593.706 217.482 602.949 218.814 611.126C219.129 613.061 219.58 615.617 221.745 616.152C229.741 618.13 248.109 616.991 257.249 616.995C281.918 617.25 306.59 617.213 331.258 616.883C342.812 616.784 354.367 618.054 365.874 616.435ZM431.531 721.119C440.454 720.993 472.405 722.096 477.83 716.858C479.713 715.04 479.602 712.122 479.537 709.709C479.189 696.807 478.342 673.487 468.608 664.29C466.231 662.044 463.476 661.824 460.347 661.626C448.178 660.855 435.578 661.513 423.375 661.537L155.608 661.685L133.652 662.174C129.401 662.28 124.723 662.003 120.58 662.987C118.849 663.399 117.553 664.077 116.29 665.333C107.893 673.687 108.096 699.813 108.379 711.142C108.448 713.907 108.609 716.901 110.462 719.093C112.437 719.934 114.483 720.269 116.607 720.483C128.72 721.705 141.346 721.23 153.527 721.318L221.126 721.501L431.531 721.119Z" fill="black"/>
<path d="M288.032 225.104C324.912 222.335 357.07 249.95 359.907 286.825C362.744 323.7 335.189 355.909 298.32 358.815C261.353 361.728 229.041 334.084 226.196 297.112C223.352 260.141 251.055 227.879 288.032 225.104ZM292.178 314.716C298.312 314.531 303.385 313.873 307.835 309.141C312.664 304.007 314.723 296.762 314.338 289.824C314.019 284.089 312.016 278.206 307.703 274.24C304.213 271.029 298.871 269.097 294.092 269.339C293.96 269.346 293.829 269.365 293.698 269.377C287.137 269.887 280.859 272.571 276.534 277.651C272.757 282.089 270.63 287.466 271.146 293.353C271.7 299.683 274.716 306.038 279.736 310.029C283.372 312.919 287.6 314.299 292.178 314.716Z" fill="black"/>
<path d="M290.043 103.253C295.892 103.015 301.063 103.96 305.835 107.554C310.556 111.149 313.585 116.532 314.207 122.434C314.768 127.481 313.586 132.811 310.336 136.794C306.483 141.519 301.353 142.786 295.636 143.483C289.567 143.689 283.495 142.862 278.44 139.247C274.515 136.44 271.97 132.322 271.305 127.538C270.506 121.784 272.162 115.462 275.774 110.91C279.223 106.563 284.589 103.92 290.043 103.253Z" fill="black"/>
</svg>
