<svg width="724" height="339" viewBox="0 0 724 339" fill="none" xmlns="http://www.w3.org/2000/svg">
<path d="M262.593 148.409L364.048 68.2668C397.041 94.3341 430.815 119.487 463.588 145.835C464.548 146.606 465.672 147.618 466.887 147.899V235.743L464.589 222.975C463.195 217.883 461.949 213.419 457.648 209.997C455.58 208.353 445.846 203.904 445.503 202.694C445.161 201.484 447.761 194.87 447.986 192.582C449.211 180.11 443.854 169.165 429.574 172.127C418.834 174.354 418.655 185.758 419.395 194.619C419.676 197.949 420.984 200.774 421.607 203.935C418.113 206.371 414.012 207.653 410.698 210.452C407.822 212.878 405.325 216.141 404.569 219.905C403.732 220.043 404.094 219.216 404.063 218.639C403.783 213.44 404.39 207.954 404.084 202.776C401.173 153.511 340.346 145.074 326.173 191.81L324.391 201.519C324.248 221.826 324.074 242.254 323.88 262.806C323.553 262.918 322.011 263.02 321.812 262.479C321.434 256.994 320.091 251.11 319.799 245.692C319.539 240.865 320.974 240.39 321.357 237.556C322.312 230.472 320.8 220.232 317.328 213.945C315.877 211.315 313.625 209.252 312.236 206.78C306.613 196.8 310.821 182.541 303.441 173.695C297.42 166.474 285.566 166.8 278.472 172.194C264.856 182.546 268.983 197.852 273.145 211.994C269.269 216.616 266.25 222.061 265.142 228.072C264.146 227.811 263.697 226.616 263.104 226.029L262.665 225.942C262.323 200.084 262.297 174.242 262.593 148.399V148.409Z" fill="#D8CFC5"/>
<path d="M5.57723 107.684C9.26975 107.133 12.2421 108.032 15.6333 108.083C67.8036 108.854 122.221 105.606 173.962 108.588C181.49 109.023 184.361 106.775 185.923 116.035C189.539 137.506 191.327 160.12 194.223 181.79C197.833 208.802 202.272 235.85 204.759 262.939C203.804 267.505 199.381 267.699 195.459 267.934C186.797 268.45 177.992 267.443 169.412 267.372C121.567 266.999 73.7024 267.683 25.8529 267.418C21.9969 267.3 19.0399 264.762 18.5291 260.952L0.0869658 117.506C-0.336933 113.17 0.679403 108.415 5.57723 107.684Z" fill="#C6C6C6"/>
<path d="M554.727 55.9687C550.938 53.0525 545.192 51.1373 540.534 49.9881C522.164 45.458 504.722 50.3814 487.823 57.4957C493.517 38.456 510.478 25.8157 530.744 29.6461C540.871 31.5613 551.229 37.2967 557.786 45.2435C550.202 28.2978 534.257 16.0558 518.297 7.36328L510.294 3.37454C513.16 2.58803 516.28 1.68405 519.232 1.33165C528.936 0.167205 538.17 2.11816 546.51 7.2407C558.18 14.4061 564.441 27.2559 567.746 40.1465C573.185 15.4225 599.109 -7.53448 625.202 3.62479C607.092 13.3336 587.888 25.2385 579.242 44.7379C588.864 33.9157 605.733 26.9495 620.202 29.5644C634.727 32.1895 645.585 44.4008 648.69 58.5274C630.605 49.0229 609.002 44.5592 589.324 52.0157L581.28 55.9738H592.771C599.952 55.9738 611.392 63.6448 615.993 69.0125C618.098 71.464 626.887 85.3761 626.172 87.8173C626.039 88.277 619.517 92.2963 618.317 93.2718C617.372 94.0379 614.257 97.8632 613.46 97.3423C612.796 95.3964 611.167 93.568 609.865 91.995C603.889 84.7989 595.983 76.3976 588.077 71.3925C553.992 49.8196 527.291 89.5129 510.294 113.685C504.508 92.1891 515.177 65.3098 537.245 58.1648C539.171 57.5417 545.075 55.9789 546.806 55.9789H554.722L554.727 55.9687Z" fill="#D8CFC5"/>
<path d="M43.75 24.8148C55.2668 25.8771 67.1002 32.925 74.3984 41.6635L77.1972 45.7493C80.379 29.7586 92.3452 16.2244 106.308 8.47168L87.9326 63.1189C90.1848 61.3569 91.6915 58.9412 93.7854 56.9749C108.806 42.8943 131.135 40.4582 150.741 38.0936C147.202 52.6491 136.589 63.9974 122.406 68.742L100.696 74.8553C103.326 74.9779 106.002 74.7174 108.632 74.84C125.966 75.6521 143.938 76.1526 151.86 94.4313C152.375 95.6264 153.274 97.5773 153.039 98.8695C146.022 96.0605 138.632 93.6448 131.078 92.7408C120.021 91.4231 108.964 93.4354 97.8661 92.7561C93.5199 92.4906 89.0357 91.0299 84.858 90.9533C85.7313 93.3537 86.0991 95.7898 85.8897 98.3536H79.2452L79.7508 90.1821C77.1001 91.5355 74.6538 93.1851 71.8499 94.2781C63.9593 97.3628 54.6999 98.0727 46.324 98.3741C37.9482 98.6754 29.7766 98.1136 21.5336 98.3485C25.2108 89.2168 34.271 83.1086 42.989 79.2067L54.2147 75.8819L3.65833 71.2752C21.5234 52.1793 51.5487 55.2845 71.0685 70.2588L65.6651 61.6225C55.2004 47.7564 42.3915 35.9945 29.1944 24.8046C33.8982 25.1212 39.1075 24.3756 43.75 24.8046V24.8148Z" fill="#D8CEC5"/>
<path d="M552.172 300.605C551.937 302.29 551.584 303.996 551.661 305.712L551.773 306.764C550.144 307.714 539.976 315.079 541.007 316.575C541.666 317.53 561.375 317.714 562.795 316.693C564.485 313.419 565.17 309.68 564.848 305.467L565.956 304.691C566.171 303.342 566.681 301.958 566.978 300.605L567.739 299.583H592.932L593.535 300.605C593.653 302.469 593.127 304.527 594.046 306.223L594.199 307.581C582.166 316.815 580.542 320.487 589.327 318.582C594.746 318.347 600.047 317.591 605.22 316.315C606.605 313.24 607.12 309.803 606.768 306.013L607.835 305.201C607.963 303.649 608.234 302.168 608.346 300.605L608.704 299.583L699.857 299.961C708.713 303.174 707.033 331.442 698.356 331.503C638.954 331.912 579.526 332.275 520.124 331.795C518.99 331.738 518.193 331.539 518.459 330.232C521.544 321.054 520.962 310.36 518.459 301.121L521.038 300.242C531.023 300.155 540.972 300.053 550.885 299.946L552.162 300.61L552.172 300.605Z" fill="#D8CFC5"/>
<path d="M444.409 67.2047H376.739C375.942 67.2047 366.682 57.9249 363.96 57.9709C361.754 58.0117 353.828 65.4478 351.713 67.2047H282.51L363.879 8.03247L444.404 67.2047H444.409Z" fill="#820000"/>
<path d="M299.362 211.739C300.215 212.127 301.783 212.183 303.121 212.837C312.6 217.449 312.431 224.568 312.646 233.95C313.019 250.293 315.429 265.416 316.216 281.458C316.803 293.434 316.231 308.316 300.138 306.728C289.28 305.656 284.577 293.265 281.998 284.267L279.96 294.987H260.552C262.462 282.99 264.618 270.692 268.719 259.236C266.339 261.728 265.195 265.487 264.117 268.674C261.232 277.239 259.352 286.269 256.977 294.987H242.166C244.087 284.777 245.532 274.353 247.943 264.246C249.158 259.154 249.679 253.884 255.098 251.483C259.587 249.497 257.897 251.534 260.042 252.597L260.864 251.841C272.442 252.586 280.792 257.985 289.561 265.554C291.946 266.739 293.683 268.204 294.771 269.961C296.906 271.672 299.204 273.133 301.66 274.333C301.594 271.713 302.192 269.405 303.453 267.408L302.871 266.156C304.199 263.276 311.727 242.617 310.731 241.81C310.169 241.356 300.297 240.069 299.689 240.671L296.65 254.783C295.93 255.881 295.859 255.962 294.485 255.845C291.206 255.564 275.047 245.671 271.533 243.128C270.726 242.541 270.598 242.249 271.272 241.361C270.532 239.032 271.002 235.053 271.41 232.561C272.743 224.446 277.59 214.91 286.083 212.76L287.197 213.465C288.31 222.26 295.542 215.615 298.223 211.611L299.367 211.739H299.362Z" fill="#A2524C"/>
<path d="M427.044 209.185C427.427 208.961 427.785 208.95 428.122 209.206L433.408 226.121L439.164 209.43L440.323 209.185C444.414 211.8 451.85 213.205 454.848 217.388C456.467 219.645 457.391 223.297 457.963 226.019C460.905 240.028 460.073 254.926 460.277 269.17C457.81 269.445 458.97 270.508 458.576 272.637C458.025 275.605 456.334 277.76 453.091 277.622C453.163 274.752 451.937 272.285 453.091 269.451C452.529 269.338 450.691 269.604 450.537 269.451C449.863 268.787 450.808 252.801 449.521 250.549L449.01 249.629C449.327 265.171 449.159 280.63 448.5 296.003C448.474 296.141 448.117 296.35 447.989 296.514C447.943 296.912 447.826 297.504 447.54 297.535C445.726 297.739 440.834 297.739 439 297.535L438.28 296.514C435.395 296.514 432.483 296.524 429.598 296.514C427.044 298.087 422.887 298.163 420.405 296.514C419.389 296.478 418.357 296.544 417.335 296.514C417.729 282.065 418.03 267.602 417.846 253.102L416.891 258.01C416.692 259.507 416.212 269.032 415.808 269.44C415.65 269.599 413.765 269.338 413.765 269.44V277.101C410.967 277.101 409.399 274.782 408.495 272.413C408.153 271.524 408.357 270.518 408.117 269.818C407.953 269.338 407.208 269.624 407.085 268.71C406.666 265.477 407.591 262.014 407.657 258.991C407.882 248.654 406.881 224.578 414.067 216.882C417.249 213.475 424.062 212.301 427.044 209.175V209.185Z" fill="#D8CFC5"/>
<path d="M717.136 247.489C714.353 248.746 711.35 248.787 708.347 248.71C689.332 248.23 670.318 248.005 651.309 248.051C646.677 258.654 646.912 274.129 651.835 284.767C672.76 284.573 693.663 284.665 714.537 285.043L717.136 285.799C719.516 285.875 721.886 285.089 723.199 287.653C724.067 289.353 724.133 292.821 722.249 293.715C720.655 294.471 708.291 293.95 705.395 293.97C700.461 294.553 695.512 294.92 690.548 295.043C663.378 295.712 635.993 295.15 608.868 293.97C609.823 280.002 610.089 265.911 611.539 251.953C611.876 250.293 617.321 239.747 618.398 239.405C620.278 239.548 622.081 238.904 623.914 238.792C655.027 236.861 688.122 240.283 719.445 238.812C723.638 239.262 724.608 240.911 723.673 245.089C723.025 247.995 719.47 247.408 717.146 247.5L717.136 247.489Z" fill="#820000"/>
<path d="M548.087 160.667H475.564V144.579C465.687 136.019 455.023 128.374 444.921 120.064V98.8693H474.798L548.087 160.667Z" fill="#820000"/>
<path d="M282.511 98.8693V121.086L253.4 144.579V160.667H200.284C200.826 157.332 197.69 147.393 199.227 145.054L253.144 98.8693H282.511Z" fill="#820000"/>
<path d="M279.449 307.755C284.592 308.751 286.916 316.228 287.442 320.911C288.167 327.321 286.262 337.504 278.939 338.909C248.643 338.965 218.321 338.863 188.025 338.909V332.775L193.137 332.78C192.56 329.461 194.108 315.824 192.622 313.878C191.222 313.577 189.782 313.49 188.306 313.623L188.28 308.107C218.367 308.138 248.418 308.015 278.423 307.745C278.76 307.729 279.107 307.76 279.444 307.745L279.449 307.755Z" fill="#D8CFC5"/>
<path d="M705.388 293.965C707.88 297.188 710.281 300.084 711.277 304.164C712.717 310.043 712.528 322.816 710.633 328.582C708.217 335.941 702.809 338.327 695.444 338.429C636.027 339.251 576.221 337.749 516.671 338.398C514.291 338.337 512.105 336.861 512.545 334.287C513.142 330.778 515.42 330.099 518.464 330.227C518.571 330.227 519.281 330.758 520.19 330.773C579.495 331.835 638.943 330.104 698.253 330.497C703.754 329.062 705.112 318.414 704.811 313.689C704.581 310.109 703.258 302.086 699.29 300.829L608.356 300.6C608.514 298.388 608.719 296.156 608.867 293.96C641.032 293.822 673.228 294.144 705.393 293.96L705.388 293.965Z" fill="#AFA09F"/>
<path d="M663.51 171.903C663.499 172.296 663.392 172.904 663.137 172.914C659.199 173.093 648.116 173.128 644.674 172.367L644.097 171.392C642.499 171.525 641.957 163.864 642.049 164.247C643.658 172.475 645.471 180.723 647.478 188.986L646.651 189.783C646.528 190.202 646.385 190.615 646.181 190.993C645.021 193.138 629.429 203.062 627.003 203.169C626.574 203.189 626.145 203.133 625.711 203.062C622.57 195.774 619.884 186.821 616.518 180.079C615.297 176.244 614.802 172.189 615.032 167.909L608.566 167.822L607.841 166.8C608.827 152.893 610.389 140.774 625.716 136.157L626.395 136.147C627.606 148.026 637.294 141.075 639.96 134.196L641.038 133.604C646.089 134.533 651.901 138.19 655.353 142.015C662.866 150.35 662.452 161.504 663.51 171.908V171.903Z" fill="#A3524C"/>
<path d="M717.134 247.49V285.794C695.331 285.099 673.401 286.381 651.588 285.712C650.296 285.283 648.621 279.675 648.329 278.245C647.374 273.623 646.94 267.239 647.145 262.53C647.262 259.803 648.386 247.888 651.098 247.076C673.094 246.203 695.153 248.353 717.139 247.49H717.134Z" fill="#D8CFC5"/>
<path d="M395.38 200.503C395.416 221.33 395.242 242.096 394.869 262.811C394.338 262.99 384.165 262.99 383.633 262.811V201.014C380.59 176.101 346.662 176.698 344.819 202.035V203.057C344.676 203.501 344.502 203.496 344.308 203.057C344.364 222.704 344.19 242.28 343.797 261.79C340.748 262.265 336.581 262.116 333.583 261.79C333.21 241.677 333.036 221.422 333.072 201.014C337.607 161.05 390.303 160.151 395.38 200.503Z" fill="#53565A"/>
<path d="M550.131 206.632V230.38C550.131 231.442 546.418 231.075 545.397 231.264C535.223 233.158 528.987 247.734 528.175 256.943C528.083 258 528.38 262.607 528.165 262.811C528.094 262.883 526.122 262.913 526.122 262.811V235.487C526.122 234.563 524.646 229.9 524.171 228.756C518.482 215.14 499.805 214.165 492.833 227.224C492.292 228.235 490.372 233.158 490.372 233.955V262.811H475.561V206.632H550.126H550.131Z" fill="#D8CFC5"/>
<path d="M550.128 169.86H475.563V197.439H550.128V169.86Z" fill="#820000"/>
<path d="M278.936 338.909C289.395 333.148 288.685 314.307 279.447 307.754C285.223 307.499 290.335 307.724 296.025 307.775C310.289 307.908 324.564 307.53 338.823 307.877C354.15 312.218 353.042 336.084 337.281 338.776C317.838 339.046 298.374 338.868 278.936 338.909Z" fill="#53565A"/>
<path d="M253.399 169.86V197.439H204.881L201.817 169.86H253.399Z" fill="#820000"/>
<path d="M609.802 183.731L622.13 213.537C622.268 214.573 622.09 214.195 621.385 214.292C617.667 214.783 613.688 213.848 610.159 213.761C600.2 213.511 590.205 214.195 580.251 213.537L565.951 183.404L609.796 183.736L609.802 183.731Z" fill="#A2524B"/>
<path d="M76.945 299.583C75.6069 299.205 74.1207 296.233 74.09 294.731C73.9726 289.267 76.6692 282.259 76.6947 276.606C89.2891 276.723 101.929 276.223 114.488 277.111C114.141 279.149 114.902 281.039 115.019 282.964C115.254 286.938 114.314 293.133 115.106 296.667C115.402 298 117.568 300.094 118.829 300.094H143.089V306.733H85.377V299.583C83.1145 299.18 78.9061 300.135 76.9501 299.583H76.945Z" fill="#C6C6C6"/>
<path d="M548.597 293.965C543.557 292.004 539.915 288.47 537.99 283.378C534.563 274.338 534.67 253.95 539.706 245.487C541.376 242.678 545.998 238.296 549.369 238.296H560.86C558.48 256.871 555.916 275.441 553.199 293.965C552.954 295.548 548.98 295.477 548.603 293.965H548.597Z" fill="#820000"/>
<path d="M339.712 75.8868L291.199 114.191L291.194 75.8868H339.712Z" fill="#D8CFC5"/>
<path d="M253.4 206.632V225.018C250.157 224.507 246.894 223.858 244.182 226.269C237.629 232.101 246.255 240.962 248.742 246.734C243.456 250.104 241.541 256.81 241.654 262.811H239.1V235.993C239.1 234.839 237.409 229.9 236.791 228.598C231.521 217.449 217.573 214.573 208.462 222.97L206.414 206.627H253.4V206.632Z" fill="#D8CFC5"/>
<path d="M436.238 75.8868L436.233 113.17L388.741 75.8868H436.238Z" fill="#D8CFC5"/>
<path d="M569.026 293.965C573.526 275.947 578.444 258.056 583.27 240.125C586.069 239.956 588.965 239.507 591.753 239.308C592.591 239.246 592.601 239.221 592.499 240.053C592.07 243.669 590.39 247.392 590.436 251.325C590.604 265.39 592.223 279.833 593.03 293.96L592.56 294.981H569.639L569.026 293.96V293.965Z" fill="#820000"/>
<path d="M271.274 241.361C271.372 241.407 271.647 242.035 272.112 242.29C279.906 246.585 286.984 252.27 295.529 255.155L298.925 239.384C303.184 239.119 307.383 240.447 311.596 240.876C312.909 242.249 305.84 261.289 304.865 264.476C304.553 265.503 303.69 266.504 303.45 267.408C302.418 271.146 297.342 273.628 294.768 269.961C286.264 265.84 278.986 256.58 269.758 254.369C267.148 253.741 262.148 253.644 260.039 252.597C258.966 249.073 256.704 246.065 254.931 242.893L255.682 241.841C258.46 242.152 261.234 242.285 263.997 242.239C263.113 241.034 262.985 240.058 263.614 239.318C265.13 239.548 269.977 240.748 271.274 241.361Z" fill="#D8CFC5"/>
<path d="M663.51 171.903C663.893 175.687 664.889 179.9 665.063 183.884C665.221 187.393 665.589 195.324 663.944 198.128C661.401 202.449 648.04 206.892 643.081 208.164L642.663 209.221C638.199 210.008 632.484 210.396 628.27 208.675C627.453 206.805 626.534 204.951 625.717 203.057C632.867 199.461 640.272 194.63 646.656 189.778C646.58 188.894 646.544 188.506 647.366 188.338L643.853 172.99L644.103 171.392L663.51 171.903Z" fill="#D8CFC5"/>
<path d="M640.016 125.938C639.858 129.053 641.012 131.137 641.038 133.599C641.089 138.721 628.979 149.124 626.467 140.258C626.288 139.62 625.731 136.688 625.716 136.152C625.711 135.933 626.216 135.11 626.227 134.39C626.288 129.16 625.619 131.755 621.972 129.431C614.562 124.707 614.909 113.716 618.06 106.53L619.245 106.025C621.671 106.648 631.625 109.87 632.84 111.372C634.904 113.92 633.872 116.071 632.457 118.594C632.125 120.841 637.713 124.099 639.653 124.773L640.016 125.943V125.938Z" fill="#D8CFC5"/>
<path d="M286.087 212.761C286.001 211.857 286.271 208.394 286.067 208.184C285.827 207.939 282.119 207.822 279.964 205.35C276.409 201.279 275.138 188.9 278.432 184.415C281.951 179.625 281.838 183.246 284.029 185.452C286.496 187.939 290.914 189.681 294.193 190.866C294.285 195.973 293.835 209.206 299.366 211.739C295.72 217.418 287.175 223.981 286.087 212.761Z" fill="#D8CFC5"/>
<path d="M640.016 125.938C637.523 125.401 631.022 121.362 631.405 118.655C631.645 116.944 633.637 115.943 632.763 113.021C631.89 110.095 620.874 108.42 618.06 106.53C623.78 93.4812 642.768 93.4659 643.116 109.835C643.243 115.861 640.276 120.856 640.021 125.938H640.016Z" fill="#53565A"/>
<path d="M565.82 71.9184C574.88 70.0389 578.102 80.5036 579.568 87.3984C579.456 88.3738 569.231 93.8947 567.75 95.146C567.127 95.146 557.689 88.8692 557.28 88.3943C556.274 87.2298 557.709 82.3677 558.281 80.7181C559.374 77.5619 562.306 72.6487 565.82 71.9184Z" fill="#53565A"/>
<path d="M581.279 95.2942C582.418 96.6783 577.868 112.153 576.208 112.914L558.358 112.603C556.254 106.826 554.329 100.968 553.705 94.7886C554.426 93.9919 565.702 102.822 567.786 102.95C570.105 103.098 580.779 94.6967 581.274 95.2942H581.279Z" fill="#53565A"/>
<path d="M437.77 206.632C437.239 207.72 429.624 207.99 429.261 207.74L428.577 206.632C430.216 202.143 427.504 199.885 426.652 196.045C426.028 193.241 425.068 182.72 428.419 181.703C429.936 181.244 439.757 183.016 440.237 184.497C440.584 185.58 440.4 189.635 440.257 190.993C439.675 196.448 435.635 200.942 437.765 206.632H437.77Z" fill="#D8CFC5"/>
<path d="M548.596 293.965H553.193C552.871 296.172 552.478 298.393 552.171 300.605C541.237 300.717 529.378 301.871 518.464 301.115C515.813 300.932 512.958 301.029 512.437 297.668C511.594 292.244 516.712 293.96 519.72 293.991C529.337 294.088 538.984 293.965 548.596 293.965Z" fill="#B0A19F"/>
<path d="M447.984 296.519V326.141H439.557C439.133 326.141 438.653 324.905 438.766 324.379L438.28 296.519H447.984Z" fill="#A2524C"/>
<path d="M429.598 296.519L429.981 325.395C429.159 326.897 427.565 325.681 426.273 325.63C424.322 325.553 422.351 325.676 420.4 325.63V296.514C423.449 296.621 426.544 296.503 429.598 296.514V296.519Z" fill="#A2524C"/>
<path d="M607.84 305.201C607.615 307.99 608.157 315.64 605.767 317.172C605.215 317.53 604.515 317.688 603.882 317.841C598.019 319.246 590.981 318.965 585.006 320.359C584.219 320.4 583.157 319.935 582.891 319.159C581.354 314.644 591.676 309.307 594.051 306.222L607.84 305.201Z" fill="#A3534C"/>
<path d="M565.96 304.69C565.393 308.286 566.44 317.438 562.155 317.995C558.468 318.475 545.858 318.48 542.186 317.995C539.07 317.581 539.714 315.804 541.18 313.873C542.135 312.612 550.633 305.875 551.66 305.712C556.088 305.002 561.476 306.703 565.96 304.69Z" fill="#A3524C"/>
<path d="M559.834 230.636V189.522L572.49 215.069C568.874 217.873 565.845 220.339 563.659 224.502C562.49 226.729 562.219 230.901 559.839 230.641L559.834 230.636Z" fill="#53565A"/>
<path d="M576.175 141.77H560.343V155.049H576.175V141.77Z" fill="#53565A"/>
<path d="M576.175 162.71V175.478H559.832C559.536 174.763 560.343 173.945 560.343 173.69V162.71H576.175Z" fill="#53565A"/>
<path d="M575.664 120.83H560.343V133.598H575.664V120.83Z" fill="#53565A"/>
<path d="M246.25 307.244C239.953 307.617 233.65 307.622 227.353 307.244C230.367 298.02 242.563 292.075 250.846 298.827C249.258 301.575 246.848 304.016 246.25 307.244Z" fill="#A2524B"/>
<path d="M643.081 208.164C647.264 208.103 651.712 208.465 656.104 208.726C657.018 208.777 658.361 208.235 658.678 208.292C660.011 208.521 659.225 213.082 659.424 214.293H630.568C629.21 212.776 629.021 210.391 628.27 208.675C632.095 208.567 635.956 208.812 639.781 208.7C640.941 208.664 641.962 208.184 643.081 208.164Z" fill="#A4524B"/>
<path d="M593.03 293.965C593.158 296.197 593.403 298.378 593.541 300.605H566.983C567.489 298.306 568.48 296.151 569.026 293.965H593.03Z" fill="#B0A19F"/>
<path d="M437.769 206.632C438.101 206.734 439.74 208.813 440.323 209.185L433.428 229.619L427.044 209.185C427.167 209.053 428.494 206.857 428.576 206.632C430.971 207.076 435.752 206.024 437.769 206.632Z" fill="#A2524C"/>
<path d="M254.932 242.893C253.037 239.512 251.229 236.049 249.314 232.678H258.251C259.252 232.678 261.913 239.18 262.649 239.793C262.827 239.941 263.481 239.297 263.614 239.318L265.657 242.888C261.979 244.093 258.655 242.627 254.932 242.888V242.893Z" fill="#A3514B"/>
<path d="M607.841 166.796H616.012L616.523 180.074C614.521 176.07 611.671 175.319 607.325 175.483C606.957 172.505 607.636 169.63 607.841 166.796Z" fill="#D8CFC6"/>
<path d="M333.074 201.014L333.585 261.79H343.799L344.31 203.057C344.555 222.689 344.642 242.484 344.571 262.443L333.585 262.811C333.386 262.745 333.166 262.852 333.115 262.525L333.074 201.014Z" fill="#53565A"/>
<path d="M278.428 307.755C278.29 307.76 277.32 308.613 276.702 308.301L188.541 308.26C188.684 309.123 188.347 313.178 188.541 313.372C188.868 313.699 191.753 312.734 192.627 313.883H188.025V307.755C217.78 307.239 248.627 307.346 278.423 307.755H278.428Z" fill="#F5EFE3"/>
<path d="M227.353 307.244C233.645 307.244 239.957 307.244 246.249 307.244C256.203 307.254 266.167 307.239 276.127 307.244L278.425 307.755H188.027C188.553 306.907 189.968 307.244 190.831 307.234C202.996 307.086 215.192 307.244 227.353 307.244Z" fill="#A79A94"/>
<path d="M263.105 226.039C263.013 225.947 261.848 226.402 262.048 225.304V150.141L262.594 148.404L263.105 226.034V226.039Z" fill="#FAF2E5"/>
<path d="M344.821 262.811C342.099 262.26 335.791 263.557 333.585 262.811C335 261.534 343.805 262.811 344.315 262.306V203.057H344.821C344.8 222.975 344.8 242.893 344.821 262.811Z" fill="#53565A"/>
<path d="M324.393 201.525C324.76 221.519 324.096 241.56 324.413 261.56C324.377 262.137 324.612 262.556 323.882 262.811V199.737C324.694 198.859 324.387 201.254 324.393 201.525Z" fill="#FBF5E7"/>
<path d="M394.871 262.811L395.381 200.503L395.34 262.525C395.295 262.852 395.07 262.745 394.871 262.811Z" fill="#53565A"/>
<path d="M344.818 262.811C345.548 243.102 343.842 222.684 344.818 203.057C344.833 202.72 344.792 202.372 344.818 202.035V262.811Z" fill="#53565A"/>
<path d="M361.541 108.185C374.038 106.045 382.21 120.065 374.866 130.192C365.346 143.318 347.041 132.914 351.102 118.175C352.327 113.727 356.914 108.977 361.541 108.185Z" fill="#4E4E4E"/>
<path d="M177.303 118.272L191.603 230.125L24.1117 229.589L10.2966 118.277L177.303 118.272Z" fill="white"/>
<path d="M109.759 243C118.824 241.524 121.434 256.391 111.685 255.671C104.463 255.14 102.921 244.114 109.759 243Z" fill="#4E4F4F"/>
<path d="M644.101 171.392C645.761 177.051 647.013 182.832 648.55 188.527C648.437 189.231 647.13 189.415 646.655 189.778L641.609 165.963L642.053 164.247C642.436 166.704 643.407 169.027 644.101 171.392Z" fill="#474B4C"/>
<path d="M700.794 256.172V280.176L691.427 274.134C687.873 275.758 685.222 279.205 681.387 280.176V256.172H700.794Z" fill="white"/>
<path d="M165.556 131.04L175.796 213.031L35.8885 213.21L25.6128 130.534L165.556 131.04Z" fill="#53565A"/>
<path d="M108.865 202.546L100.694 139.216C119.258 139.012 137.716 140.018 156.291 139.799L163.513 202.546H108.865Z" fill="#D8CFC5"/>
<path d="M79.2438 145.856C80.8628 151.729 83.4011 159.017 78.7382 164.502C77.2929 166.208 74.3613 166.652 74.1928 166.846C73.8302 167.26 74.3256 171.376 74.1366 172.403C86.6493 173.644 91.7718 179.16 93.9118 191.187L96.6033 210.712H43.4882C42.7783 202.709 40.7303 192.015 42.1858 184.129C43.575 176.611 51.7772 173.996 58.2276 172.337C58.6924 171.678 58.0846 165.978 57.7884 164.747C58.534 162.725 59.5402 160.692 60.8016 158.639C58.4472 154.124 60.1786 151.673 65.0151 151.142C66.869 149.947 68.5136 148.231 69.9487 145.994C70.6994 145.539 78.8352 144.39 79.2387 145.845L79.2438 145.856Z" fill="#D8CFC5"/>
<path d="M79.2462 145.856L70.4107 146.867C70.043 146.949 67.903 150.708 66.7386 151.479C64.1952 153.175 60.3444 151.714 60.8193 155.83C60.9572 157.046 61.9531 157.72 61.8152 158.752C61.6314 160.105 59.1186 163.925 57.7959 164.753C57.0042 161.443 54.4711 158.154 53.5569 154.436C51.7796 147.179 53.3219 138.139 62.137 137.174C64.517 136.913 72.5149 137.286 74.7978 137.792C77.0807 138.297 78.5771 141.081 79.1236 143.185C79.3585 144.099 79.0776 145.238 79.2462 145.856Z" fill="#C6C6C6"/>
<path d="M151.767 160.156C151.971 160.33 152.512 165.033 152.277 165.263C138.897 165.58 125.587 164.844 112.242 164.783C111.568 164.599 111.323 160.948 111.42 160.156H151.767Z" fill="white"/>
<path d="M150.164 151.034C150.644 151.724 151.196 155.462 150.45 155.57L110.394 155.054C110.833 153.992 109.914 151.775 110.016 151.198C110.318 149.472 116.497 150.953 117.784 150.988C128.561 151.264 139.393 150.677 150.164 151.04V151.034Z" fill="white"/>
<path d="M125.208 183.139L124.697 178.547L153.068 178.001C154.58 178.2 154.273 181.816 154.319 183.139H125.208Z" fill="white"/>
<path d="M155.341 187.735V192.332H126.229L125.719 187.735H155.341Z" fill="white"/>
<path d="M81.7306 191.371C82.0983 192.005 81.6284 192.98 81.0411 193.368L68.0075 202.035L65.9646 183.414C66.3119 183.077 66.3221 182.653 66.9758 182.878C67.9104 183.205 71.3016 185.978 72.7674 186.805C74.131 187.572 81.4752 190.937 81.7306 191.371Z" fill="#820000"/>
</svg>
