<svg xmlns="http://www.w3.org/2000/svg" width="28" height="28" fill="none" viewBox="0 0 28 28">
  <g clip-path="url(#a)">
    <path fill="#000" d="M14 28c7.732 0 14-6.268 14-14S21.732 0 14 0 0 6.268 0 14s6.268 14 14 14Z"/>
    <path fill="#fff" d="m23.088 11.198-10.061 10.06a1.056 1.056 0 0 1-1.493 0l-6.622-6.621a1.056 1.056 0 0 1 0-1.493l1.678-1.678a1.056 1.056 0 0 1 1.493 0l4.197 4.198 7.637-7.637a1.055 1.055 0 0 1 1.493 0l1.677 1.678c.413.413.413 1.08 0 1.493Z"/>
  </g>
  <defs>
    <clipPath id="a">
      <path fill="#fff" d="M0 0h28v28H0z"/>
    </clipPath>
  </defs>
</svg>
