<svg xmlns="http://www.w3.org/2000/svg" width="27" height="29" fill="none" viewBox="0 0 27 29">
  <g clip-path="url(#a)">
    <path fill="url(#b)" d="M21.815 3.194c-.68.794-.994 2.578-.306 4.391.688 1.813 1.741 1.417 2.398 3.264.867 2.436.465 5.708.465 5.708s1.042 3.033 1.77-.188c1.606-6.058-4.327-11.686-4.327-13.175Z"/>
    <path fill="url(#c)" d="M13.54 28.32c6.944 0 12.57-5.682 12.57-12.69 0-7.01-5.626-12.692-12.565-12.692C6.607 2.938.983 8.621.983 15.63.969 22.644 6.6 28.32 13.54 28.32Z"/>
    <path fill="url(#d)" d="M22.959 23.454a7.243 7.243 0 0 1-.853.518 19.8 19.8 0 0 0 1.085-1.792c.27-.299.513-.59.714-.902a9.41 9.41 0 0 0 .322-.564c.706-1.277 1.485-3.346 1.507-5.469v-.162a7.49 7.49 0 0 0-.161-1.588l.017.123-.017-.094c.011.057.02.114.028.17.145 1.23.043 2.43-.473 3.315-.008.015-.017.026-.025.037.266-1.343.356-2.828.06-4.313 0 0-.12-.723-1.003-2.914-.51-1.264-1.41-2.297-2.21-3.05-.699-.871-1.333-1.452-1.684-1.825-.731-.774-1.037-1.354-1.164-1.733-.108-.054-1.504-1.417-1.615-1.468-.608.95-2.526 3.918-1.614 6.69.414 1.258 1.459 2.561 2.552 3.292.048.054.651.712.937 2.197.298 1.53.142 2.729-.467 4.496-.717 1.55-2.549 3.085-4.268 3.241-3.673.336-5.015-1.852-5.015-1.852 1.31.526 2.764.415 3.645-.128.889-.552 1.427-.962 1.863-.803.43.16.773-.307.464-.791a2.22 2.22 0 0 0-2.248-.985c-.89.146-1.705.854-2.872.168a1.812 1.812 0 0 1-.218-.145c-.076-.051.25.077.173.02a5.555 5.555 0 0 1-.734-.49c-.017-.016.176.063.159.046-1.09-.902-.954-1.51-.92-1.895.028-.307.226-.697.56-.856.162.088.26.156.26.156s-.067-.142-.104-.216c.014-.006.026-.003.04-.009.133.066.425.23.577.333a.84.84 0 0 1 .264.268s.054-.029.014-.154a.786.786 0 0 0-.272-.376h.011c.12.069.233.146.337.234.057-.205.156-.418.136-.8-.014-.267-.008-.338-.053-.44-.043-.089.022-.126.096-.032a.937.937 0 0 0-.063-.21v-.006c.091-.32 1.935-1.153 2.068-1.25.22-.156.405-.358.54-.591.103-.165.18-.396.199-.743.011-.25-.108-.418-1.968-.615-.51-.051-.807-.42-.977-.762-.031-.074-.063-.14-.094-.208a1.794 1.794 0 0 1-.073-.24c.305-.878.815-1.621 1.569-2.182.042-.037-.165.009-.122-.028.048-.043.36-.17.419-.2.07-.033-.309-.196-.643-.156-.343.04-.413.08-.598.157.077-.077.318-.174.261-.174-.368.057-.827.273-1.218.515 0-.043.009-.085.023-.125-.181.077-.632.393-.762.657.006-.05.009-.102.009-.153a2.449 2.449 0 0 0-.374.392l-.006.006c-1.059-.427-1.988-.455-2.778-.265-.173-.173-.258-.045-.648-.913-.026-.051.02.051 0 0-.066-.168.04.225 0 0-.66.524-1.527 1.115-1.943 1.534-.006.017.487-.14 0 0-.17.048-.159.15-.184 1.067-.006.068 0 .148-.006.21-.334.427-.56.786-.646.974-.43.745-.903 1.906-1.365 3.744a9.59 9.59 0 0 1 .731-1.431c-.382.976-.75 2.507-.824 4.863a14.1 14.1 0 0 1 .354-1.443c-.09 1.958.246 3.91.983 5.723.263.648.702 1.636 1.444 2.714a12.674 12.674 0 0 0 9.275 4.018c3.811 0 7.232-1.676 9.586-4.337Z"/>
    <path fill="url(#e)" d="M20.138 25.25c4.613-.538 6.655-5.313 4.033-5.406-2.37-.077-6.216 5.66-4.033 5.406Z"/>
    <path fill="url(#f)" d="M24.502 18.868c3.172-1.856 2.345-5.865 2.345-5.865s-1.226 1.428-2.056 3.708c-.821 2.259-2.198 3.278-.289 2.157Z"/>
    <path fill="url(#g)" d="M14.429 27.623c4.423 1.417 8.227-2.083 5.882-3.252-2.13-1.056-7.983 2.58-5.882 3.252Z"/>
    <path fill="url(#h)" d="M24.83 20.57c.108-.154.253-.641.383-.86.782-1.266.787-2.277.787-2.3.473-2.367.43-3.334.14-5.121-.236-1.44-1.256-3.503-2.142-4.496-.912-1.025-.269-.692-1.152-1.437-.774-.862-1.524-1.716-1.935-2.06-2.95-2.482-2.883-3.008-2.826-3.1-.009.012-.023.026-.043.046-.034-.14-.059-.259-.059-.259s-1.614 1.622-1.954 4.326c-.22 1.764.436 3.605 1.388 4.78a10.807 10.807 0 0 0 1.67 1.65c.72 1.04 1.116 2.32 1.116 3.697 0 3.449-2.784 6.246-6.219 6.246a6.14 6.14 0 0 1-1.39-.157c-1.62-.31-2.557-1.132-3.025-1.69a2.982 2.982 0 0 1-.382-.552c1.453.524 3.058.413 4.036-.128.985-.55 1.58-.953 2.061-.794.476.16.855-.304.516-.783-.335-.477-1.201-1.166-2.49-.976-.985.146-1.889.849-3.177.165a2.538 2.538 0 0 1-.24-.142c-.086-.051.277.077.192.02-.252-.122-.697-.39-.81-.486-.02-.017.195.062.175.045-1.206-.896-1.056-1.5-1.02-1.878.032-.304.25-.691.621-.85a4.8 4.8 0 0 1 .289.153l-.116-.213c.014-.006.028-.003.042-.009.147.063.47.228.64.33.221.142.292.268.292.268s.06-.029.014-.151c-.017-.051-.082-.21-.303-.373h.014c.13.065.255.145.371.233.063-.202.173-.415.15-.794-.014-.267-.008-.335-.06-.438-.045-.088.026-.122.108-.031a.89.89 0 0 0-.068-.208v-.005c.102-.316 2.139-1.142 2.289-1.238.238-.151.444-.35.6-.586.113-.163.198-.39.221-.738.008-.156-.04-.278-.58-.398-.323-.071-.825-.14-1.598-.213-.563-.052-.895-.419-1.082-.757-.034-.074-.07-.14-.104-.205a1.387 1.387 0 0 1-.08-.24 4.513 4.513 0 0 1 1.736-2.165c.046-.037-.18.009-.136-.028.054-.043.4-.168.465-.196.08-.035-.34-.194-.714-.157-.38.04-.459.08-.66.157.085-.074.351-.174.29-.174-.409.057-.916.27-1.349.512 0-.042.009-.085.026-.122-.201.077-.697.39-.841.654.005-.05.008-.102.008-.153a2.447 2.447 0 0 0-.413.39l-.009.005c-1.184-.42-2.212-.45-3.084-.259-.19-.173-.498-.432-.932-1.292-.028-.05-.045.109-.068.057-.17-.392-.271-1.035-.255-1.48 0 0-.348.16-.637.829-.054.12-.087.185-.121.253-.017.02.036-.22.028-.205-.051.085-.181.205-.238.359-.04.113-.093.179-.13.321l-.009.014c-.003-.042.012-.173 0-.145a6.497 6.497 0 0 0-.348.848 7.91 7.91 0 0 0-.365 2.123c-.006.068 0 .145-.009.208-.368.42-.62.78-.714.964-.475.74-1 1.89-1.509 3.714a9.14 9.14 0 0 1 .807-1.423C.49 12.434.082 13.951 0 16.29c.102-.484.235-.962.394-1.429-.074 1.56.107 3.491 1.09 5.674.583 1.28 1.923 3.887 5.2 5.919 0 0 1.115.834 3.03 1.46.141.05.286.102.43.15-.045-.02-.09-.037-.133-.057 1.274.384 2.6.58 3.93.58 4.962.007 6.426-1.997 6.426-1.997l-.014.012a2.32 2.32 0 0 0 .201-.208c-.781.743-2.571.791-3.236.74 1.138-.336 1.888-.62 3.347-1.181.17-.063.345-.137.524-.216l.056-.026.108-.048a9.858 9.858 0 0 0 1.99-1.252c1.465-1.176 1.785-2.322 1.95-3.076a4.049 4.049 0 0 1-.148.35c-.377.81-1.212 1.309-2.121 1.735a19.65 19.65 0 0 0 1.2-1.775c.295-.302.386-.763.607-1.076Z"/>
    <path fill="url(#i)" d="M23.05 23.38a9.33 9.33 0 0 0 1.537-2.276c1.045-2.208 2.662-5.879 1.388-9.712-1.003-3.03-2.385-4.686-4.138-6.305-2.846-2.627-3.642-3.802-3.642-4.5 0 0-3.288 3.683-1.86 7.524 1.427 3.842 4.347 3.7 6.278 7.709 2.274 4.715-1.84 9.863-5.239 11.302.207-.045 7.561-1.718 7.947-5.944-.012.077-.179 1.246-2.272 2.203Z"/>
    <path fill="url(#j)" d="M13.525 9.677c.012-.25-.119-.419-2.172-.612-.844-.08-1.17-.862-1.268-1.193-.3.786-.425 1.608-.357 2.604.045.652.481 1.352.69 1.764 0 0 .046-.06.069-.082.393-.41 2.036-1.036 2.192-1.124.17-.111.818-.59.846-1.357Z"/>
    <path fill="url(#k)" d="M4.483 5.041c-.028-.051-.045.108-.068.057-.17-.393-.272-1.03-.246-1.48 0 0-.349.16-.638.828-.053.12-.087.185-.121.254-.017.02.037-.22.028-.205-.051.085-.181.205-.235.353-.048.12-.093.185-.13.335-.012.04.011-.179 0-.153-.674 1.297-.802 3.27-.731 3.184C3.772 6.68 5.41 6.319 5.41 6.319c-.173-.131-.552-.504-.926-1.278Z"/>
    <path fill="url(#l)" d="M9.906 21.078c-1.974-.847-4.22-2.043-4.134-4.754.116-3.574 3.319-2.869 3.319-2.869-.122.029-.445.262-.558.507-.122.307-.343 1.004.325 1.733 1.051 1.144-2.157 2.714 2.796 5.68.124.068-1.162-.043-1.748-.297Z"/>
    <path fill="url(#m)" d="M9.207 19.297c1.399.49 3.03.404 4.007-.14.654-.363 1.492-.95 2.008-.805-.448-.176-.785-.261-1.192-.281-.071 0-.153 0-.227-.009-.15 0-.297.009-.447.026-.252.023-.533.182-.785.156-.014 0 .247-.108.227-.102-.136.028-.28.034-.436.054-.1.011-.184.023-.28.028-2.918.248-5.382-1.587-5.382-1.587-.21.711.94 2.114 2.507 2.66Z"/>
    <path fill="url(#n)" d="M23.044 23.4c2.95-2.91 4.443-6.447 3.812-10.414 0 0 .252 2.034-.703 4.114.459-2.031.513-4.555-.708-7.17-1.628-3.489-4.304-5.327-5.327-6.092-1.549-1.161-2.189-2.342-2.203-2.587-.462.953-1.863 4.217-.15 7.028 1.603 2.635 4.132 3.415 5.899 5.834 3.26 4.45-.62 9.288-.62 9.288Z"/>
    <path fill="url(#o)" d="M22.622 15.826c-1.031-2.137-2.317-3.074-3.535-4.084.142.2.176.27.255.399 1.07 1.146 2.651 3.946 1.504 7.458-2.158 6.613-10.793 3.5-11.699 2.623.366 3.828 6.74 5.66 10.892 3.179 2.362-2.248 4.273-6.067 2.583-9.575Z"/>
  </g>
  <defs>
    <radialGradient id="b" cx="0" cy="0" r="1" gradientTransform="matrix(9.70428 .3849 -.57004 14.3722 26.542 9.245)" gradientUnits="userSpaceOnUse">
      <stop offset=".1" stop-color="#FFEA00"/>
      <stop offset=".17" stop-color="#FFDE00"/>
      <stop offset=".28" stop-color="#FFBF00"/>
      <stop offset=".43" stop-color="#FF8E00"/>
      <stop offset=".77" stop-color="#FF272D"/>
      <stop offset=".87" stop-color="#E0255A"/>
      <stop offset=".95" stop-color="#CC2477"/>
      <stop offset="1" stop-color="#C42482"/>
    </radialGradient>
    <radialGradient id="c" cx="0" cy="0" r="1" gradientTransform="matrix(27.5611 0 0 27.6931 17.709 4.952)" gradientUnits="userSpaceOnUse">
      <stop stop-color="#00CCDA"/>
      <stop offset=".22" stop-color="#0083FF"/>
      <stop offset=".26" stop-color="#007AF9"/>
      <stop offset=".33" stop-color="#005FE7"/>
      <stop offset=".44" stop-color="#2639AD"/>
      <stop offset=".52" stop-color="#401E84"/>
      <stop offset=".57" stop-color="#4A1475"/>
    </radialGradient>
    <radialGradient id="e" cx="0" cy="0" r="1" gradientTransform="rotate(5.644 -181 286.753) scale(9.26598 9.30949)" gradientUnits="userSpaceOnUse">
      <stop stop-color="#FFEA00"/>
      <stop offset=".5" stop-color="#FF272D"/>
      <stop offset="1" stop-color="#C42482"/>
    </radialGradient>
    <radialGradient id="f" cx="0" cy="0" r="1" gradientTransform="matrix(15.39828 1.52184 -1.52898 15.47053 27.36 10.226)" gradientUnits="userSpaceOnUse">
      <stop stop-color="#FFE900"/>
      <stop offset=".16" stop-color="#FFAF0E"/>
      <stop offset=".32" stop-color="#FF7A1B"/>
      <stop offset=".47" stop-color="#FF4E26"/>
      <stop offset=".62" stop-color="#FF2C2E"/>
      <stop offset=".76" stop-color="#FF1434"/>
      <stop offset=".89" stop-color="#FF0538"/>
      <stop offset="1" stop-color="#FF0039"/>
    </radialGradient>
    <radialGradient id="g" cx="0" cy="0" r="1" gradientTransform="matrix(14.12956 1.39645 -1.403 14.19594 28.134 24.783)" gradientUnits="userSpaceOnUse">
      <stop stop-color="#FF272D"/>
      <stop offset=".5" stop-color="#C42482"/>
      <stop offset=".99" stop-color="#620700"/>
    </radialGradient>
    <radialGradient id="h" cx="0" cy="0" r="1" gradientTransform="matrix(22.1511 0 0 22.2572 20.254 11.8)" gradientUnits="userSpaceOnUse">
      <stop offset=".16" stop-color="#FFEA00"/>
      <stop offset=".23" stop-color="#FFDE00"/>
      <stop offset=".37" stop-color="#FFBF00"/>
      <stop offset=".54" stop-color="#FF8E00"/>
      <stop offset=".76" stop-color="#FF272D"/>
      <stop offset=".8" stop-color="#F92433"/>
      <stop offset=".84" stop-color="#E91C45"/>
      <stop offset=".89" stop-color="#CF0E62"/>
      <stop offset=".94" stop-color="#B5007F"/>
    </radialGradient>
    <radialGradient id="i" cx="0" cy="0" r="1" gradientTransform="matrix(25.2456 0 0 25.3665 18.984 1.478)" gradientUnits="userSpaceOnUse">
      <stop offset=".28" stop-color="#FFEA00"/>
      <stop offset=".4" stop-color="#FD0"/>
      <stop offset=".63" stop-color="#FFBA00"/>
      <stop offset=".86" stop-color="#FF9100"/>
      <stop offset=".93" stop-color="#FF6711"/>
      <stop offset=".99" stop-color="#FF4A1D"/>
    </radialGradient>
    <linearGradient id="d" x1="15.311" x2="9.842" y1="21.337" y2="3.532" gradientUnits="userSpaceOnUse">
      <stop stop-color="#000F43" stop-opacity=".4"/>
      <stop offset=".48" stop-color="#001962" stop-opacity=".17"/>
      <stop offset="1" stop-color="#002079" stop-opacity="0"/>
    </linearGradient>
    <linearGradient id="j" x1="4.208" x2="15.085" y1="10.983" y2="9.33" gradientUnits="userSpaceOnUse">
      <stop stop-color="#C42482" stop-opacity=".5"/>
      <stop offset=".47" stop-color="#FF272D" stop-opacity=".5"/>
      <stop offset=".49" stop-color="#FF2C2C" stop-opacity=".51"/>
      <stop offset=".68" stop-color="#FF7A1A" stop-opacity=".72"/>
      <stop offset=".83" stop-color="#FFB20D" stop-opacity=".87"/>
      <stop offset=".94" stop-color="#FFD605" stop-opacity=".96"/>
      <stop offset="1" stop-color="#FFE302"/>
    </linearGradient>
    <linearGradient id="k" x1="4.107" x2="2.963" y1="8.118" y2="4.026" gradientUnits="userSpaceOnUse">
      <stop stop-color="#891551" stop-opacity=".6"/>
      <stop offset="1" stop-color="#C42482" stop-opacity="0"/>
    </linearGradient>
    <linearGradient id="l" x1="6.196" x2="8.547" y1="13.866" y2="17.134" gradientUnits="userSpaceOnUse">
      <stop offset=".01" stop-color="#891551" stop-opacity=".5"/>
      <stop offset=".48" stop-color="#FF272D" stop-opacity=".5"/>
      <stop offset="1" stop-color="#FF272D" stop-opacity="0"/>
    </linearGradient>
    <linearGradient id="m" x1="10.746" x2="10.962" y1="19.575" y2="17.468" gradientUnits="userSpaceOnUse">
      <stop stop-color="#C42482"/>
      <stop offset=".08" stop-color="#C42482" stop-opacity=".81"/>
      <stop offset=".21" stop-color="#C42482" stop-opacity=".57"/>
      <stop offset=".33" stop-color="#C42482" stop-opacity=".36"/>
      <stop offset=".45" stop-color="#C42482" stop-opacity=".2"/>
      <stop offset=".56" stop-color="#C42482" stop-opacity=".09"/>
      <stop offset=".67" stop-color="#C42482" stop-opacity=".02"/>
      <stop offset=".77" stop-color="#C42482" stop-opacity="0"/>
    </linearGradient>
    <linearGradient id="n" x1="17.573" x2="26.298" y1="1.616" y2="21.034" gradientUnits="userSpaceOnUse">
      <stop stop-color="#FFF14F"/>
      <stop offset=".27" stop-color="#FFEE4C"/>
      <stop offset=".45" stop-color="#FFE643"/>
      <stop offset=".61" stop-color="#FFD834"/>
      <stop offset=".76" stop-color="#FFC41E"/>
      <stop offset=".89" stop-color="#FFAB02"/>
      <stop offset=".9" stop-color="#FFA900"/>
      <stop offset=".95" stop-color="#FFA000"/>
      <stop offset="1" stop-color="#FF9100"/>
    </linearGradient>
    <linearGradient id="o" x1="19.282" x2="15.148" y1="12.801" y2="23.85" gradientUnits="userSpaceOnUse">
      <stop stop-color="#FF8E00"/>
      <stop offset=".04" stop-color="#FF8E00" stop-opacity=".86"/>
      <stop offset=".08" stop-color="#FF8E00" stop-opacity=".73"/>
      <stop offset=".13" stop-color="#FF8E00" stop-opacity=".63"/>
      <stop offset=".18" stop-color="#FF8E00" stop-opacity=".56"/>
      <stop offset=".23" stop-color="#FF8E00" stop-opacity=".51"/>
      <stop offset=".28" stop-color="#FF8E00" stop-opacity=".5"/>
      <stop offset=".39" stop-color="#FF8E00" stop-opacity=".48"/>
      <stop offset=".52" stop-color="#FF8E00" stop-opacity=".42"/>
      <stop offset=".68" stop-color="#FF8E00" stop-opacity=".31"/>
      <stop offset=".84" stop-color="#FF8E00" stop-opacity=".17"/>
      <stop offset="1" stop-color="#FF8E00" stop-opacity="0"/>
    </linearGradient>
    <clipPath id="a">
      <path fill="#fff" d="M0 .588h27v28H0z"/>
    </clipPath>
  </defs>
</svg>
