<svg xmlns="http://www.w3.org/2000/svg" width="25" height="19" fill="currentColor" viewBox="0 0 25 19">
  <path d="M12.508 9V2.112c0-1.011-.627-1.733-1.64-1.882-.542-.08-1.018.112-1.441.447a632.666 632.666 0 0 1-4.38 3.444.775.775 0 0 1-.454.156c-.876.015-1.752.007-2.636.007-1.185 0-1.963.774-1.963 1.942v5.578c0 1.13.747 1.89 1.903 1.904.869.015 1.737.008 2.606 0a.869.869 0 0 1 .612.216c1.435 1.138 2.87 2.261 4.305 3.4.627.497 1.306.616 2.031.274.733-.342 1.058-.952 1.058-1.733.007-2.29 0-4.574 0-6.865ZM2.024 6.27c.997 0 1.98-.007 2.961.008a1.51 1.51 0 0 0 1.012-.35c1.428-1.13 2.855-2.254 4.283-3.384.053-.045.12-.075.181-.112v13.165a1597.198 1597.198 0 0 1-4.517-3.563 1.357 1.357 0 0 0-.883-.304c-.846.007-1.7 0-2.546 0h-.49V6.27ZM25 8.45c-.053-2.79-1.246-5.683-3.61-8.1-.423-.432-1.027-.454-1.443-.075-.423.387-.445.997-.007 1.443 1.17 1.19 2.054 2.551 2.538 4.136 1.178 3.89.324 7.326-2.425 10.324-.242.267-.453.528-.423.907.038.417.257.714.657.863.4.141.763.06 1.065-.238a12.247 12.247 0 0 0 2.455-3.451C24.592 12.585 25 10.837 25 8.449Z"/>
  <path d="M21.012 8.903c-.053-2.164-.846-4.113-2.424-5.75-.446-.46-1.058-.49-1.48-.089-.416.395-.416.99.022 1.443 1.231 1.287 1.88 2.804 1.858 4.582-.023 1.674-.642 3.102-1.79 4.33-.15.163-.302.371-.362.58-.129.438.098.877.49 1.085a.993.993 0 0 0 1.194-.186 8.302 8.302 0 0 0 1.782-2.588c.469-1.056.695-2.165.71-3.407Z"/>
  <path d="M17.002 9.03c-.015-1.205-.423-2.217-1.224-3.072-.445-.476-1.042-.52-1.48-.127-.43.387-.43.982 0 1.466.944 1.063.936 2.372-.015 3.421-.408.454-.408 1.064.007 1.443.423.387 1.035.35 1.458-.097.83-.862 1.246-1.889 1.254-3.034Z"/>
</svg>
