<svg xmlns="http://www.w3.org/2000/svg" width="26" height="24" fill="currentColor" viewBox="0 0 26 24">
<path
    d="M26 16.512c-.044.142-.082.291-.133.434-.368 1.153-1.415 1.943-2.601 1.943-2.107.007-4.213 0-6.32 0h-.323c.159.81.31 1.594.463 2.377.095.473.203.946.273 1.42.032.239.133.284.349.284.704-.013 1.402-.006 2.106-.006.108 0 .222 0 .33.026.235.058.343.246.362.472a.497.497 0 0 1-.368.493 1.614 1.614 0 0 1-.355.032H6.23c-.108 0-.222-.006-.33-.026a.503.503 0 0 1-.394-.499c.007-.24.184-.46.419-.479.438-.026.876-.02 1.32-.026.387 0 .78.007 1.167-.006.076 0 .197-.085.21-.15.26-1.282.507-2.564.754-3.854 0-.012-.006-.032-.012-.07h-6.49c-1.478 0-2.57-.927-2.83-2.404-.031-.175-.025-.363-.025-.544 0-4.327.026-8.654-.012-12.982C-.013 1.4 1.187-.039 2.906 0c1.06.026 2.113.007 3.172.007h16.953c.742 0 1.421.168 1.992.68.482.427.8.945.927 1.587.006.052.031.097.05.142v14.096ZM1.028 13.759h23.963V2.94c0-.156-.006-.311-.038-.466-.133-.713-.73-1.445-1.89-1.445-6.7.013-13.4.006-20.1.006-.21 0-.425.013-.628.065-.831.227-1.313.894-1.313 1.795v8.602c0 .078.006.149.012.24h2.881c.254 0 .45.077.552.324.146.362-.114.7-.552.706-.87.006-1.745 0-2.614 0h-.273v.99Zm.025 1.062c0 .538-.012 1.062.007 1.587.006.156.076.317.152.46.355.7.939.998 1.7.998 6.732-.007 13.463 0 20.201 0h.204c.66-.046 1.154-.35 1.471-.946.356-.667.153-1.386.216-2.092-8.013-.007-15.982-.007-23.95-.007Zm15.335 8.136c-.266-1.373-.533-2.714-.793-4.049h-5.17c-.267 1.354-.527 2.689-.794 4.05h6.757Z" />
<path
    d="M14.262 10.494c-.279.298-.532.576-.799.842-.38.382-.825.26-.945-.272-.343-1.503-.685-3-1.015-4.502-.108-.492.196-.797.672-.68 1.472.343 2.944.693 4.41 1.043.526.123.64.563.266.958-.254.266-.514.525-.768.79-.006.007-.006.014-.038.066.305.298.616.602.927.92.361.362.355.615-.007.984l-.825.842c-.342.343-.583.343-.932-.006l-.946-.985Zm-.939-.453c.184-.195.324-.35.47-.506.355-.362.59-.356.945.007.311.317.616.628.92.946.12-.124.229-.234.356-.363-.33-.33-.654-.654-.977-.985-.299-.31-.299-.563-.007-.874.159-.169.324-.337.52-.538-.996-.233-1.947-.453-2.918-.687.241 1.017.463 1.976.691 3Zm-.729-6.071c0 .124.006.24 0 .364-.025.278-.216.473-.47.492a.472.472 0 0 1-.514-.428 4.032 4.032 0 0 1 0-.874c.032-.279.254-.44.52-.428.255.013.445.208.47.493.007.123-.006.252-.006.382Zm.463 1.037c.057-.155.063-.259.12-.324.204-.226.413-.46.641-.654.197-.162.45-.123.622.052a.496.496 0 0 1 .038.66 6.17 6.17 0 0 1-.609.623c-.152.136-.355.155-.514.026-.12-.104-.203-.266-.298-.383ZM9.631 7.003c-.152-.007-.305-.007-.457-.026a.49.49 0 0 1-.406-.486c0-.227.152-.46.38-.48a5.26 5.26 0 0 1 .959 0c.241.026.38.266.368.512a.48.48 0 0 1-.406.46c-.152.013-.298.007-.438.02Zm1.504.958c-.064.156-.076.272-.14.344-.19.22-.387.434-.609.621-.197.169-.476.13-.647-.051a.496.496 0 0 1-.032-.661c.178-.214.38-.415.59-.603.152-.136.355-.174.514-.045.133.104.222.272.324.395ZM11.09 4.93c-.006.42-.425.673-.736.447a3.821 3.821 0 0 1-.679-.687c-.14-.175-.101-.402.045-.57.133-.156.349-.279.514-.15.298.24.558.532.825.81.038.033.025.117.031.15Zm-5.088 7.32c0 .284-.21.511-.482.524-.273.007-.52-.246-.52-.524a.52.52 0 0 1 .507-.506c.286.007.495.22.495.505Zm6.992 5.11a1.024 1.024 0 0 1-.996-1.03 1.023 1.023 0 0 1 1.015-1.01c.545.006 1.002.48.996 1.03a1.019 1.019 0 0 1-1.015 1.01Z" />
</svg>
