<svg xmlns="http://www.w3.org/2000/svg" width="118" height="88" fill="none" viewBox="0 0 118 88">
  <path fill="#801517" d="M117.471.14v77.338c.004.346-.018.693-.066 1.037v.035c-.327 2.427-1.759 4.67-4.021 6.302-2.262 1.63-5.194 2.534-8.234 2.535H.649l7.838-8.837 29.552-33.358L7.569 8.517.65.175 117.471.14Z"/>
  <path fill="#540000" d="M.649.14h79.322v8.342H7.57L.65.14Zm116.756 78.375v.118c.006.889-.277 1.764-.822 2.539-.919 1.83-2.498 3.398-4.535 4.503-2.038 1.104-4.44 1.695-6.898 1.695H.649l7.838-8.838 108.918-.017Z"/>
  <path fill="#4C1719" d="M117.405 70.832v7.8c.006.89-.277 1.765-.822 2.54-.831 1.183-2.207 2.058-3.833 2.437-1.625.38-3.371.232-4.863-.41l-8.88-4.684-17.421-9.18h.646l35.173 1.497Z"/>
</svg>
